<svg width="810" height="255" viewBox="0 0 810 255" fill="none" xmlns="http://www.w3.org/2000/svg">
<rect x="93.8281" y="76.3242" width="58.3964" height="58.3964" rx="14.0151" fill="#1E2841"/>
<g clip-path="url(#clip0_4903_169239)">
<rect x="111.734" y="98.3164" width="21.6797" height="14.0151" rx="2.62784" fill="#384568"/>
<path d="M121.168 106.187C122.098 106.878 123.371 106.878 124.301 106.187L132.778 99.8958C133.456 99.3928 133.1 98.3164 132.256 98.3164H113.213C112.369 98.3164 112.013 99.3928 112.691 99.8958L121.168 106.187Z" fill="#303B59"/>
</g>
<path d="M118.13 217.738L98.2797 229.082L103.951 239.009C104.613 238.631 112.515 234.641 138.832 221.707C134.294 213.767 123.14 215.753 118.13 217.738Z" fill="black"/>
<rect x="60.3906" y="171.906" width="31.2224" height="68.9188" transform="rotate(-29.9324 60.3906 171.906)" fill="#1F2C3E"/>
<path d="M118.201 128.462C116.898 130.984 113.388 132.63 111.797 133.137L102.65 133.112L105.852 145.099C108.483 144.931 115.185 144.26 120.951 142.917C128.158 141.238 128.12 140.63 131.646 138.577C137.64 135.087 136.441 132.786 133.726 132.959L123.406 133.617L123.405 133.617C122.191 133.694 119.157 133.888 121.43 131.305C123.703 128.722 119.83 125.311 118.201 128.462Z" fill="#64707E"/>
<path d="M52.8583 183.72C49.8613 176.113 47.7505 168.186 46.5677 160.096L79.3806 160.266L85.5987 196.535L58.5503 198.167L52.8583 183.72Z" fill="#1F2C3E"/>
<path d="M33.6015 215.016L27.5191 192.827L20.6478 194.073C18.2517 194.508 16.5988 196.832 16.9519 199.242C17.7053 204.382 19.1678 214.649 21.7551 233.321C30.7432 231.691 33.9118 220.374 33.6015 215.016Z" fill="black"/>
<path d="M34.3229 217.728L25.6698 190.945L70.4185 179.536C76.2867 178.04 82.2508 181.609 83.7071 187.487L85.286 193.86C86.7353 199.71 83.1677 205.627 77.3176 207.077L34.3229 217.728Z" fill="#1F2C3E"/>
<path d="M39.8779 76.7805C42.3237 88.9662 53.7137 97.3402 65.8994 94.8945C83.7483 93.6193 84.9106 77.9565 84.7804 72.5905C84.7513 71.3934 84.4411 70.2483 83.9187 69.1708C81.1241 63.4071 70.779 44.6542 57.0426 50.766C44.8569 53.2118 37.4322 64.5947 39.8779 76.7805Z" fill="#64707E"/>
<path d="M84.7501 68.9851C83.5298 69.1852 82.002 64.6372 81.0074 63.8528L80.3336 71.0691L80.9863 87.1025C85.4139 81.934 86.56 71.5026 86.4128 70.2733C86.2532 68.94 85.6217 68.8422 84.7501 68.9851Z" fill="#64707E"/>
<path fill-rule="evenodd" clip-rule="evenodd" d="M72.6089 52.9634C67.5506 54.7637 58.6098 58.6528 52.9501 68.6626C47.4147 78.4523 48.0723 83.1779 49.0364 90.1065C49.0955 90.5309 49.1557 90.9635 49.2157 91.4061C44.2137 88.2316 40.4655 83.0992 39.2077 76.8321C36.7619 64.6464 44.6578 52.7852 56.8435 50.3395C62.4653 49.2112 68.0179 50.2839 72.6089 52.9634Z" fill="#0F172A"/>
<ellipse cx="1.60745" cy="1.61402" rx="1.60745" ry="1.61402" transform="matrix(-0.90602 0.423235 0.423235 0.90602 73.9609 63.2725)" fill="#1F2C3E"/>
<circle cx="5.62606" cy="5.62606" r="5.62606" transform="matrix(-0.980447 0.196781 0.196781 0.980447 53.5 69.374)" fill="#64707E"/>
<rect x="53.0547" y="86.9531" width="15.2082" height="17.5864" rx="7.60409" transform="rotate(1.73691 53.0547 86.9531)" fill="#64707E"/>
<mask id="path-16-outside-1_4903_169239" maskUnits="userSpaceOnUse" x="28.7905" y="32.9518" width="45.1851" height="34.8322" fill="black">
<rect fill="white" x="28.7905" y="32.9518" width="45.1851" height="34.8322"/>
<path fill-rule="evenodd" clip-rule="evenodd" d="M68.6102 48.6L39.018 62.7553C36.923 56.7163 41.1487 49.1666 48.9211 45.4487C56.6935 41.7308 65.2233 43.179 68.6102 48.6Z"/>
</mask>
<path fill-rule="evenodd" clip-rule="evenodd" d="M68.6102 48.6L39.018 62.7553C36.923 56.7163 41.1487 49.1666 48.9211 45.4487C56.6935 41.7308 65.2233 43.179 68.6102 48.6Z" fill="#1F2C3E"/>
<path d="M39.018 62.7553L35.9391 63.8234L37.1343 67.2689L40.4242 65.6952L39.018 62.7553ZM68.6102 48.6L70.0164 51.5399L73.3063 49.9662L71.374 46.8733L68.6102 48.6ZM40.4242 65.6952L70.0164 51.5399L67.2039 45.6602L37.6117 59.8154L40.4242 65.6952ZM42.0968 61.6872C40.7612 57.8371 43.3705 51.7164 50.3274 48.3886L47.5148 42.5089C38.9269 46.6169 33.0847 55.5954 35.9391 63.8234L42.0968 61.6872ZM50.3274 48.3886C57.2842 45.0608 63.6871 46.8707 65.8463 50.3268L71.374 46.8733C66.7595 39.4873 56.1028 38.4009 47.5148 42.5089L50.3274 48.3886Z" fill="#1F2C3E" mask="url(#path-16-outside-1_4903_169239)"/>
<rect x="34.0781" y="65.1152" width="43.7382" height="5.46727" rx="1.82242" transform="rotate(-25.5639 34.0781 65.1152)" fill="#1F2C3E"/>
<path d="M45.7271 106.737C49.4425 97.9905 56.2452 97.9347 59.3133 98.4985L65.2294 133.271L98.8096 131.326L101.731 150.536C86.461 151.547 51.255 162.13 40.8198 150.113C34.0586 142.327 41.0829 117.67 45.7271 106.737Z" fill="#1F2C3E"/>
<path fill-rule="evenodd" clip-rule="evenodd" d="M86.3918 128.554C86.3815 128.474 86.3711 128.394 86.3604 128.314C83.7679 108.813 71.9527 94.295 59.9705 95.888C45.7941 96.3976 40.3955 114.518 42.9555 133.98L42.9549 133.98L46.7197 162.3L90.1111 156.531L86.3918 128.554Z" fill="#1F2C3E"/>
<path d="M53.5714 104.615C57.4383 95.947 63.9487 96.3812 67.0624 97.0068L73.1298 131.53L107.406 127.794L111.057 152.801C95.5214 153.503 58.6268 160.094 48.1393 147.872C41.3442 139.953 48.7378 115.449 53.5714 104.615Z" fill="#1F2C3E"/>
<rect x="55.0156" y="151.399" width="35.2812" height="24.3319" fill="#1F2C3E"/>
<rect x="258.219" y="76.3242" width="58.3964" height="58.3964" rx="14.0151" fill="#1E2841"/>
<rect x="272.82" y="104.441" width="8.65133" height="10.8142" rx="1.21659" fill="#303B59"/>
<rect x="282.555" y="100.116" width="8.65133" height="15.1398" rx="1.21659" fill="#303B59"/>
<rect x="292.289" y="95.79" width="8.65133" height="19.4655" rx="1.21659" fill="#303B59"/>
<path d="M282.521 217.737L262.67 229.081L268.342 239.008C269.004 238.63 276.906 234.64 303.223 221.706C298.685 213.766 287.531 215.752 282.521 217.737Z" fill="black"/>
<rect x="224.781" y="171.905" width="31.2224" height="68.9188" transform="rotate(-29.9324 224.781 171.905)" fill="#1F2C3E"/>
<path d="M282.592 128.461C281.289 130.983 277.779 132.629 276.187 133.137L267.04 133.111L270.243 145.098C272.873 144.93 279.576 144.259 285.342 142.916C292.549 141.237 292.51 140.629 296.037 138.576C302.03 135.086 300.831 132.785 298.117 132.958L287.796 133.616L287.796 133.616C286.582 133.693 283.547 133.887 285.82 131.304C288.094 128.721 284.22 125.31 282.592 128.461Z" fill="#64707E"/>
<path d="M217.249 183.72C214.252 176.113 212.141 168.186 210.958 160.096L243.771 160.266L249.989 196.535L222.941 198.167L217.249 183.72Z" fill="#1F2C3E"/>
<path d="M197.992 215.016L191.91 192.827L185.038 194.073C182.642 194.508 180.989 196.832 181.343 199.242C182.096 204.382 183.558 214.649 186.146 233.321C195.134 231.691 198.302 220.374 197.992 215.016Z" fill="black"/>
<path d="M198.713 217.728L190.06 190.945L234.809 179.536C240.677 178.04 246.641 181.609 248.098 187.487L249.677 193.86C251.126 199.71 247.558 205.627 241.708 207.077L198.713 217.728Z" fill="#1F2C3E"/>
<path d="M204.269 76.7795C206.714 88.9652 218.104 97.3393 230.29 94.8935C248.139 93.6183 249.301 77.9555 249.171 72.5895C249.142 71.3925 248.832 70.2473 248.309 69.1699C245.515 63.4061 235.17 44.6532 221.433 50.765C209.248 53.2108 201.823 64.5938 204.269 76.7795Z" fill="#64707E"/>
<path d="M249.141 68.9842C247.92 69.1843 246.393 64.6362 245.398 63.8519L244.724 71.0681L245.377 87.1015C249.804 81.933 250.951 71.5016 250.803 70.2723C250.644 68.9391 250.012 68.8412 249.141 68.9842Z" fill="#64707E"/>
<path fill-rule="evenodd" clip-rule="evenodd" d="M237 52.9617C231.942 54.7617 222.999 58.6504 217.339 68.6615C211.804 78.4512 212.461 83.1768 213.425 90.1054C213.484 90.5291 213.544 90.9611 213.604 91.403C208.603 88.2284 204.856 83.0965 203.598 76.8302C201.152 64.6445 209.048 52.7833 221.234 50.3376C226.856 49.2092 232.409 50.282 237 52.9617Z" fill="#0F172A"/>
<ellipse cx="1.60745" cy="1.61402" rx="1.60745" ry="1.61402" transform="matrix(-0.90602 0.423235 0.423235 0.90602 238.352 63.2715)" fill="#1F2C3E"/>
<circle cx="5.62606" cy="5.62606" r="5.62606" transform="matrix(-0.980447 0.196781 0.196781 0.980447 217.891 69.374)" fill="#64707E"/>
<rect x="217.445" y="86.9512" width="15.2082" height="17.5864" rx="7.60409" transform="rotate(1.73691 217.445 86.9512)" fill="#64707E"/>
<mask id="path-39-outside-2_4903_169239" maskUnits="userSpaceOnUse" x="193.181" y="32.9518" width="45.1851" height="34.8322" fill="black">
<rect fill="white" x="193.181" y="32.9518" width="45.1851" height="34.8322"/>
<path fill-rule="evenodd" clip-rule="evenodd" d="M233.001 48.5997L203.408 62.7549C201.314 56.716 205.539 49.1666 213.312 45.4488C221.084 41.7309 229.614 43.1789 233.001 48.5997Z"/>
</mask>
<path fill-rule="evenodd" clip-rule="evenodd" d="M233.001 48.5997L203.408 62.7549C201.314 56.716 205.539 49.1666 213.312 45.4488C221.084 41.7309 229.614 43.1789 233.001 48.5997Z" fill="#1F2C3E"/>
<path d="M203.408 62.7549L200.329 63.8229L201.525 67.2686L204.815 65.6948L203.408 62.7549ZM233.001 48.5997L234.407 51.5396L237.697 49.9658L235.764 46.8728L233.001 48.5997ZM204.815 65.6948L234.407 51.5396L231.594 45.6598L202.002 59.8151L204.815 65.6948ZM206.487 61.687C205.152 57.8369 207.761 51.7163 214.718 48.3886L211.905 42.5089C203.318 46.6168 197.476 55.5951 200.329 63.8229L206.487 61.687ZM214.718 48.3886C221.675 45.0609 228.077 46.8706 230.237 50.3266L235.764 46.8728C231.15 39.4873 220.493 38.401 211.905 42.5089L214.718 48.3886Z" fill="#1F2C3E" mask="url(#path-39-outside-2_4903_169239)"/>
<rect x="198.469" y="65.1152" width="43.7382" height="5.46727" rx="1.82242" transform="rotate(-25.5639 198.469 65.1152)" fill="#1F2C3E"/>
<path d="M210.118 106.737C213.833 97.9905 220.636 97.9347 223.704 98.4985L229.62 133.271L263.2 131.326L266.121 150.536C250.852 151.547 215.646 162.13 205.21 150.113C198.449 142.327 205.474 117.67 210.118 106.737Z" fill="#1F2C3E"/>
<path fill-rule="evenodd" clip-rule="evenodd" d="M207.388 134.296C207.378 134.225 207.369 134.154 207.359 134.082C204.767 114.58 210.159 96.3976 224.361 95.887C236.322 94.2969 248.117 108.761 250.737 128.211L250.737 128.211L254.502 156.531L211.111 162.299L207.388 134.296Z" fill="#1F2C3E"/>
<path d="M217.962 104.614C221.829 95.946 228.339 96.3802 231.453 97.0058L237.52 131.529L271.796 127.793L275.448 152.8C259.912 153.502 223.017 160.093 212.53 147.871C205.735 139.952 213.128 115.448 217.962 104.614Z" fill="#1F2C3E"/>
<rect x="219.406" y="151.398" width="35.2812" height="24.3319" fill="#1F2C3E"/>
<rect x="422" y="76.4004" width="58.3964" height="58.3964" rx="14.0151" fill="#1E2841"/>
<path fill-rule="evenodd" clip-rule="evenodd" d="M441.308 105.432C441.319 105.74 441.446 106.032 441.664 106.25L452.139 116.725C452.614 117.2 453.384 117.2 453.86 116.725L461.984 108.6C462.459 108.125 462.459 107.355 461.984 106.88L451.509 96.4047C451.291 96.187 450.999 96.0599 450.691 96.0491L442.271 95.7531C441.566 95.7283 440.988 96.3066 441.012 97.0117L441.308 105.432ZM446.435 101.177C447.039 100.573 447.039 99.5935 446.435 98.9894C445.831 98.3853 444.851 98.3853 444.247 98.9894C443.643 99.5935 443.643 100.573 444.247 101.177C444.851 101.781 445.831 101.781 446.435 101.177Z" fill="#303B59"/>
<path d="M446.755 217.738L426.905 229.082L432.576 239.009C433.238 238.631 441.14 234.641 467.457 221.707C462.919 213.767 451.765 215.753 446.755 217.738Z" fill="black"/>
<rect x="389.016" y="171.906" width="31.2224" height="68.9188" transform="rotate(-29.9324 389.016 171.906)" fill="#1F2C3E"/>
<path d="M446.826 128.462C445.523 130.984 442.013 132.63 440.422 133.137L431.275 133.112L434.477 145.099C437.108 144.931 443.81 144.26 449.576 142.917C456.783 141.238 456.745 140.63 460.271 138.577C466.265 135.087 465.066 132.786 462.351 132.959L452.031 133.617L452.03 133.617C450.816 133.694 447.782 133.888 450.055 131.305C452.328 128.722 448.455 125.311 446.826 128.462Z" fill="#64707E"/>
<path d="M381.483 183.721C378.486 176.114 376.376 168.187 375.193 160.097L408.006 160.267L414.224 196.536L387.175 198.168L381.483 183.721Z" fill="#1F2C3E"/>
<path d="M362.226 215.017L356.144 192.828L349.273 194.074C346.877 194.509 345.224 196.833 345.577 199.242C346.33 204.383 347.793 214.65 350.38 233.322C359.368 231.692 362.537 220.375 362.226 215.017Z" fill="black"/>
<path d="M362.948 217.729L354.295 190.946L399.044 179.537C404.912 178.041 410.876 181.61 412.332 187.488L413.911 193.861C415.36 199.711 411.793 205.628 405.943 207.078L362.948 217.729Z" fill="#1F2C3E"/>
<path d="M368.503 76.7805C370.949 88.9662 382.339 97.3402 394.524 94.8945C412.373 93.6193 413.536 77.9565 413.405 72.5905C413.376 71.3934 413.066 70.2483 412.544 69.1708C409.749 63.4071 399.404 44.6542 385.668 50.766C373.482 53.2118 366.057 64.5947 368.503 76.7805Z" fill="#64707E"/>
<path d="M413.375 68.9861C412.155 69.1862 410.627 64.6381 409.632 63.8538L408.959 71.0701L409.611 87.1035C414.039 81.935 415.185 71.5036 415.038 70.2743C414.878 68.941 414.247 68.8432 413.375 68.9861Z" fill="#64707E"/>
<path fill-rule="evenodd" clip-rule="evenodd" d="M401.234 52.9629C396.176 54.763 387.234 58.6518 381.574 68.6625C376.038 78.4523 376.696 83.1778 377.66 90.1064C377.719 90.5303 377.779 90.9625 377.839 91.4046C372.838 88.2301 369.09 83.0979 367.832 76.8312C365.386 64.6455 373.282 52.7843 385.468 50.3386C391.09 49.2102 396.643 50.2831 401.234 52.9629Z" fill="#0F172A"/>
<ellipse cx="1.60745" cy="1.61402" rx="1.60745" ry="1.61402" transform="matrix(-0.90602 0.423235 0.423235 0.90602 402.586 63.2734)" fill="#1F2C3E"/>
<circle cx="5.62606" cy="5.62606" r="5.62606" transform="matrix(-0.980447 0.196781 0.196781 0.980447 382.125 69.374)" fill="#64707E"/>
<rect x="381.68" y="86.9521" width="15.2082" height="17.5864" rx="7.60409" transform="rotate(1.73691 381.68 86.9521)" fill="#64707E"/>
<mask id="path-60-outside-3_4903_169239" maskUnits="userSpaceOnUse" x="357.416" y="32.9528" width="45.1851" height="34.8322" fill="black">
<rect fill="white" x="357.416" y="32.9528" width="45.1851" height="34.8322"/>
<path fill-rule="evenodd" clip-rule="evenodd" d="M397.235 48.6007L367.643 62.7559C365.548 56.717 369.774 49.1675 377.546 45.4497C385.318 41.7319 393.848 43.1799 397.235 48.6007Z"/>
</mask>
<path fill-rule="evenodd" clip-rule="evenodd" d="M397.235 48.6007L367.643 62.7559C365.548 56.717 369.774 49.1675 377.546 45.4497C385.318 41.7319 393.848 43.1799 397.235 48.6007Z" fill="#1F2C3E"/>
<path d="M367.643 62.7559L364.564 63.8239L365.759 67.2695L369.049 65.6958L367.643 62.7559ZM397.235 48.6007L398.641 51.5405L401.931 49.9668L399.999 46.8738L397.235 48.6007ZM369.049 65.6958L398.641 51.5405L395.829 45.6608L366.237 59.816L369.049 65.6958ZM370.722 61.688C369.386 57.8379 371.996 51.7173 378.952 48.3896L376.14 42.5099C367.552 46.6178 361.71 55.596 364.564 63.8239L370.722 61.688ZM378.952 48.3896C385.909 45.0619 392.312 46.8716 394.471 50.3275L399.999 46.8738C395.384 39.4883 384.728 38.4019 376.14 42.5099L378.952 48.3896Z" fill="#1F2C3E" mask="url(#path-60-outside-3_4903_169239)"/>
<rect x="362.703" y="65.1162" width="43.7382" height="5.46727" rx="1.82242" transform="rotate(-25.5639 362.703 65.1162)" fill="#1F2C3E"/>
<path d="M374.352 106.738C378.068 97.9915 384.87 97.9357 387.938 98.4995L393.854 133.272L427.435 131.327L430.356 150.537C415.086 151.548 379.88 162.131 369.445 150.114C362.684 142.328 369.708 117.671 374.352 106.738Z" fill="#1F2C3E"/>
<path fill-rule="evenodd" clip-rule="evenodd" d="M415.014 128.536C415.005 128.462 414.995 128.388 414.985 128.314C412.393 108.813 400.578 94.295 388.596 95.888C374.419 96.3976 369.02 114.517 371.58 133.98L371.58 133.98L375.345 162.3L418.736 156.531L415.014 128.536Z" fill="#1F2C3E"/>
<path d="M382.196 104.615C386.063 95.947 392.574 96.3812 395.687 97.0068L401.755 131.53L436.031 127.794L439.682 152.801C424.146 153.503 387.252 160.094 376.764 147.872C369.969 139.953 377.363 115.449 382.196 104.615Z" fill="#1F2C3E"/>
<rect x="383.641" y="151.399" width="35.2812" height="24.3319" fill="#1F2C3E"/>
<path d="M613.75 52C613.75 49.2386 615.989 47 618.75 47C621.511 47 623.75 49.2386 623.75 52V215H613.75V52Z" fill="#334155"/>
<path d="M558.75 68C558.75 65.7909 560.541 64 562.75 64H671.136C672.176 64 673.176 64.4055 673.922 65.1304L686.795 77.6304C688.413 79.2014 688.413 81.7986 686.795 83.3696L673.922 95.8696C673.176 96.5945 672.176 97 671.136 97H562.75C560.541 97 558.75 95.2091 558.75 93V68Z" fill="#1E2841"/>
<path d="M562.75 70C562.75 68.3431 564.093 67 565.75 67H669.888C670.622 67 671.33 67.2689 671.879 67.7559L683.714 78.2559C685.059 79.4495 685.059 81.5505 683.714 82.7441L671.879 93.2441C671.33 93.7311 670.622 94 669.888 94H565.75C564.093 94 562.75 92.6569 562.75 91V70Z" fill="#1E2841" stroke="#334257" stroke-width="2"/>
<path d="M574.797 86V74.6875H576.828V79.8906H576.984L581.406 74.6875H583.891L579.516 79.7656L583.938 86H581.484L578.094 81.1406L576.828 82.625V86H574.797ZM585.188 86V74.6875H592.547V76.3906H587.219V79.4844H592.156V81.1875H587.219V84.2812H592.578V86H585.188ZM594.5 86V74.6875H601.859V76.3906H596.531V79.4844H601.469V81.1875H596.531V84.2812H601.891V86H594.5ZM603.812 86V74.6875H608.062C610.656 74.6875 612.039 76.2656 612.047 78.4375C612.039 80.6016 610.641 82.1719 608.031 82.1719H605.844V86H603.812ZM605.844 80.5H607.75C609.281 80.4922 609.969 79.6328 609.969 78.4375C609.969 77.2266 609.281 76.3906 607.75 76.3906H605.844V80.5ZM625.062 78.2969C624.695 77.0938 623.766 76.3594 622.391 76.3594C620.57 76.3594 619.242 77.7812 619.25 80.3281C619.242 82.8984 620.547 84.3281 622.438 84.3281C624.148 84.3281 625.234 83.2969 625.266 81.6875H622.641V80.0781H627.234V81.4375C627.234 84.3516 625.234 86.1562 622.438 86.1562C619.312 86.1562 617.195 83.9297 617.203 80.3438C617.195 76.7109 619.414 74.5312 622.375 74.5312C624.867 74.5312 626.797 76.0781 627.141 78.2969H625.062ZM639.172 80.3438C639.18 84 636.945 86.1562 633.984 86.1562C631.008 86.1562 628.789 83.9922 628.797 80.3438C628.789 76.6875 631.008 74.5312 633.984 74.5312C636.945 74.5312 639.18 76.6875 639.172 80.3438ZM630.844 80.3438C630.836 82.9297 632.141 84.3281 633.984 84.3281C635.836 84.3281 637.133 82.9297 637.125 80.3438C637.133 77.7578 635.836 76.3594 633.984 76.3594C632.141 76.3594 630.836 77.7578 630.844 80.3438ZM643.016 74.6875V86H640.984V74.6875H643.016ZM654.422 74.6875V86H652.609L647.25 78.2656H647.156V86H645.125V74.6875H646.969L652.297 82.4219H652.406V74.6875H654.422ZM664.094 78.2969C663.727 77.0938 662.797 76.3594 661.422 76.3594C659.602 76.3594 658.273 77.7812 658.281 80.3281C658.273 82.8984 659.578 84.3281 661.469 84.3281C663.18 84.3281 664.266 83.2969 664.297 81.6875H661.672V80.0781H666.266V81.4375C666.266 84.3516 664.266 86.1562 661.469 86.1562C658.344 86.1562 656.227 83.9297 656.234 80.3438C656.227 76.7109 658.445 74.5312 661.406 74.5312C663.898 74.5312 665.828 76.0781 666.172 78.2969H664.094Z" fill="#334257"/>
<rect x="587.75" y="117" width="62" height="62" rx="11" fill="#1E2841" stroke="#334257" stroke-width="2"/>
<path d="M600.297 128.391V126.688H609.312V128.391H605.828V138H603.797V128.391H600.297ZM610.906 138V126.688H612.938V131.484H618.203V126.688H620.25V138H618.203V133.188H612.938V138H610.906ZM624.375 126.688V138H622.344V126.688H624.375ZM632.641 129.797C632.539 128.82 631.719 128.258 630.5 128.266C629.211 128.258 628.445 128.883 628.438 129.734C628.43 130.688 629.438 131.078 630.375 131.297L631.438 131.578C633.125 131.969 634.75 132.859 634.75 134.828C634.75 136.812 633.18 138.172 630.469 138.172C627.836 138.172 626.164 136.906 626.078 134.672H628.078C628.172 135.852 629.164 136.43 630.453 136.438C631.789 136.43 632.711 135.781 632.719 134.812C632.711 133.922 631.898 133.547 630.672 133.234L629.391 132.906C627.531 132.422 626.375 131.484 626.375 129.859C626.375 127.859 628.148 126.531 630.531 126.531C632.93 126.531 634.562 127.883 634.594 129.797H632.641ZM603.188 156L600 144.688H602.188L604.234 153.016H604.344L606.516 144.688H608.516L610.703 153.031H610.797L612.844 144.688H615.031L611.844 156H609.828L607.562 148.047H607.484L605.203 156H603.188ZM616.703 156H614.531L618.516 144.688H621.016L625.016 156H622.844L621.898 153.203H617.641L616.703 156ZM618.188 151.562H621.352L619.812 147H619.719L618.188 151.562ZM624.422 144.688H626.719L629.5 149.688H629.609L632.391 144.688H634.688L630.578 151.766V156H628.547V151.766L624.422 144.688Z" fill="#334257"/>
<path d="M601.486 170.789L600.75 162.684L630.184 163.421V159L639.75 165.632L630.184 173V167.842L601.486 170.789Z" fill="#334257"/>
<path d="M784 13C784 10.2386 786.239 8 789 8C791.761 8 794 10.2386 794 13V215H784V13Z" fill="#334155"/>
<rect x="768" y="8" width="42" height="117" rx="4" fill="#1E2841"/>
<circle cx="788.5" cy="9.5" r="9.5" fill="#1E2841"/>
<circle cx="788.5" cy="124.5" r="9.5" fill="#1E2841"/>
<circle cx="789.125" cy="36.8747" r="9.8747" transform="rotate(90 789.125 36.8747)" fill="#334155"/>
<circle cx="789.125" cy="66.4997" r="9.8747" transform="rotate(90 789.125 66.4997)" fill="#41536C"/>
<circle cx="788.875" cy="95.8747" r="9.8747" transform="rotate(90 788.875 95.8747)" fill="#526886"/>
<defs>
<clipPath id="clip0_4903_169239">
<rect x="111.734" y="98.3164" width="21.6797" height="14.0151" rx="2.62784" fill="white"/>
</clipPath>
</defs>
</svg>
