<svg width="76" height="76" viewBox="0 0 76 76" fill="none" xmlns="http://www.w3.org/2000/svg">
<g filter="url(#filter0_d_4903_172076)">
<rect x="14" y="14" width="48" height="48" rx="12" fill="#1E293B"/>
<rect x="14.5" y="14.5" width="47" height="47" rx="11.5" stroke="#F8FAFC" stroke-opacity="0.1"/>
</g>
<path fill-rule="evenodd" clip-rule="evenodd" d="M40.8536 28.4835C39.3295 27.1722 37.0757 27.1722 35.5516 28.4835C34.8932 29.0499 34.0708 29.3906 33.2047 29.4556C31.1998 29.6061 29.6061 31.1998 29.4556 33.2047C29.3906 34.0708 29.0499 34.8932 28.4835 35.5516C27.1722 37.0757 27.1722 39.3295 28.4835 40.8536C29.0499 41.512 29.3906 42.3344 29.4556 43.2005C29.6061 45.2054 31.1998 46.7991 33.2047 46.9496C34.0708 47.0146 34.8932 47.3553 35.5516 47.9217C37.0757 49.233 39.3295 49.233 40.8536 47.9217C41.512 47.3553 42.3344 47.0146 43.2005 46.9496C45.2054 46.7991 46.7991 45.2054 46.9496 43.2005C47.0146 42.3344 47.3553 41.512 47.9217 40.8536C49.233 39.3295 49.233 37.0757 47.9217 35.5516C47.3553 34.8932 47.0146 34.0708 46.9496 33.2047C46.7991 31.1998 45.2054 29.6061 43.2005 29.4556C42.3344 29.3906 41.512 29.0499 40.8536 28.4835ZM43.5388 35.9552C43.9545 35.4934 43.917 34.782 43.4552 34.3664C42.9934 33.9508 42.2821 33.9882 41.8664 34.45L37.1909 39.6451L34.4228 37.3384C33.9455 36.9406 33.2361 37.0051 32.8384 37.4824C32.4406 37.9597 32.5051 38.6691 32.9824 39.0668L36.3606 41.882C36.9489 42.3723 37.8197 42.3098 38.332 41.7405L43.5388 35.9552Z" fill="url(#paint0_linear_4903_172076)"/>
<defs>
<filter id="filter0_d_4903_172076" x="0" y="0" width="76" height="76" filterUnits="userSpaceOnUse" color-interpolation-filters="sRGB">
<feFlood flood-opacity="0" result="BackgroundImageFix"/>
<feColorMatrix in="SourceAlpha" type="matrix" values="0 0 0 0 0 0 0 0 0 0 0 0 0 0 0 0 0 0 127 0" result="hardAlpha"/>
<feMorphology radius="2" operator="dilate" in="SourceAlpha" result="effect1_dropShadow_4903_172076"/>
<feOffset/>
<feGaussianBlur stdDeviation="6"/>
<feComposite in2="hardAlpha" operator="out"/>
<feColorMatrix type="matrix" values="0 0 0 0 0 0 0 0 0 0 0 0 0 0 0 0 0 0 0.25 0"/>
<feBlend mode="normal" in2="BackgroundImageFix" result="effect1_dropShadow_4903_172076"/>
<feBlend mode="normal" in="SourceGraphic" in2="effect1_dropShadow_4903_172076" result="shape"/>
</filter>
<linearGradient id="paint0_linear_4903_172076" x1="27.5" y1="38.2026" x2="48.9052" y2="38.2026" gradientUnits="userSpaceOnUse">
<stop stop-color="#10B981"/>
<stop offset="1" stop-color="#A3E635"/>
</linearGradient>
</defs>
</svg>
