<svg width="56" height="92" viewBox="0 0 56 92" fill="none" xmlns="http://www.w3.org/2000/svg">
<rect x="0.5" y="0.5" width="55" height="91" rx="4.5" stroke="#9747FF" stroke-dasharray="10 5"/>
<circle cx="28" cy="28" r="5" stroke="#F8FAFC" stroke-width="2.1128"/>
<path d="M33 28C33 30.7614 30.7614 33 28 33" stroke="#10B981" stroke-width="2.1128" stroke-linecap="round"/>
<g clip-path="url(#clip0_4903_171090)">
<path fill-rule="evenodd" clip-rule="evenodd" d="M29.6646 58.4487C28.7755 57.6838 27.4608 57.6838 26.5717 58.4487C26.1877 58.7791 25.7079 58.9778 25.2028 59.0158C24.0332 59.1035 23.1035 60.0332 23.0158 61.2028C22.9778 61.7079 22.7791 62.1877 22.4487 62.5717C21.6838 63.4608 21.6838 64.7755 22.4487 65.6646C22.7791 66.0486 22.9778 66.5284 23.0158 67.0336C23.1035 68.2032 24.0332 69.1328 25.2028 69.2206C25.7079 69.2585 26.1877 69.4572 26.5717 69.7877C27.4608 70.5526 28.7755 70.5526 29.6646 69.7877C30.0486 69.4572 30.5284 69.2585 31.0336 69.2206C32.2032 69.1328 33.1328 68.2032 33.2206 67.0336C33.2585 66.5284 33.4572 66.0486 33.7877 65.6646C34.5526 64.7755 34.5526 63.4608 33.7877 62.5717C33.4572 62.1877 33.2585 61.7079 33.2206 61.2028C33.1328 60.0332 32.2032 59.1035 31.0336 59.0158C30.5284 58.9778 30.0486 58.7791 29.6646 58.4487ZM31.231 62.8072C31.4734 62.5378 31.4516 62.1229 31.1822 61.8804C30.9128 61.6379 30.4979 61.6598 30.2554 61.9292L27.528 64.9596L25.9133 63.614C25.6349 63.382 25.2211 63.4196 24.989 63.6981C24.757 63.9765 24.7946 64.3903 25.0731 64.6223L27.0437 66.2645C27.3869 66.5505 27.8948 66.5141 28.1937 66.182L31.231 62.8072Z" fill="#10B981"/>
</g>
<defs>
<clipPath id="clip0_4903_171090">
<rect width="14" height="14" fill="white" transform="translate(21 57)"/>
</clipPath>
</defs>
</svg>
