<?xml version="1.0" encoding="UTF-8"?>
<svg version="1.1" xmlns="http://www.w3.org/2000/svg" width="512" height="512">
<path d="M0 0 C10.50276364 6.56638301 17.61822177 21.87395709 24.22897339 32.00387573 C27.40974296 36.87622749 30.60467225 41.73926361 33.80078125 46.6015625 C34.45881241 47.60277634 35.11684357 48.60399017 35.79481506 49.63554382 C44.00586004 62.10927917 52.37032921 74.47917141 60.74121094 86.84594727 C61.30266815 87.67579636 61.86412537 88.50564545 62.44259644 89.36064148 C63.55211678 90.99944383 64.66287457 92.63740914 65.77493286 94.27449036 C68.74458958 98.65441491 71.6735992 103.05676762 74.55908203 107.49267578 C75.18194595 108.44453262 75.80480988 109.39638947 76.44654846 110.37709045 C77.63824318 112.20119088 78.8224432 114.03021847 79.99766541 115.86497498 C84.39789195 122.58182851 88.60169979 127.90675914 96.8125 129.75 C107.20127063 130.71192321 113.8958298 125.57571076 121.625 119.4375 C123.49503567 117.98171274 125.36615108 116.52731152 127.23828125 115.07421875 C128.64134521 113.98052979 128.64134521 113.98052979 130.07275391 112.86474609 C134.10115894 109.75531423 138.20183132 106.74932515 142.3125 103.75 C149.03844654 98.82570912 155.69293995 93.81633667 162.3125 88.75 C171.32722801 81.85321002 180.42884751 75.08507223 189.58886719 68.3828125 C191.80791903 66.7533638 194.01832888 65.11282192 196.2265625 63.46875 C196.91766113 62.95610596 197.60875977 62.44346191 198.32080078 61.9152832 C199.61042052 60.95842267 200.89799603 59.99879826 202.18310547 59.03588867 C207.34646955 55.21786698 211.41076116 54.10372922 217.8125 54.75 C223.20146614 56.58224849 227.20189021 59.69209569 229.8125 64.75 C231.12253677 75.45986018 228.9279126 86.4404341 227.25805664 96.9987793 C226.98292495 98.78891999 226.70871533 100.5792026 226.43534851 102.36961365 C225.69687361 107.18851955 224.94546144 112.00532444 224.19141698 116.82181525 C223.40250514 121.87478049 222.62523361 126.92953664 221.84654236 131.98408508 C220.53952581 140.45719919 219.22475652 148.92907936 217.90454102 157.40014648 C216.20918675 168.2784497 214.52601107 179.15859985 212.84687138 190.03941631 C211.40175687 199.40363947 209.95194219 208.76713387 208.50092387 218.13044381 C208.18975644 220.13885917 207.87875201 222.14729978 207.56790853 224.1557653 C206.68329148 229.87156503 205.79620662 235.58696907 204.9048481 241.30172157 C204.63506985 243.0338323 204.36617546 244.76608094 204.09821701 246.49847412 C203.73316873 248.85737807 203.36489709 251.21575605 202.9957428 253.57402039 C202.88970909 254.26388478 202.78367538 254.95374916 202.67442852 255.66451854 C202.23164654 258.47318764 201.71418358 261.04494925 200.8125 263.75 C61.5525 263.75 -77.7075 263.75 -221.1875 263.75 C-224.56304939 245.7470699 -224.56304939 245.7470699 -225.5353241 239.50424194 C-225.64405973 238.81032872 -225.75279537 238.11641549 -225.86482602 237.4014746 C-226.21718699 235.1487088 -226.56604958 232.89541793 -226.91479492 230.64208984 C-227.17120732 228.99741284 -227.42781002 227.35276549 -227.68458557 225.70814514 C-228.51604348 220.37630891 -229.34216564 215.04365196 -230.16796875 209.7109375 C-230.45490201 207.86006816 -230.7418673 206.00920379 -231.02886391 204.15834427 C-232.37599024 195.46844219 -233.72063232 186.77816023 -235.06218547 178.08739603 C-236.60299936 168.10636807 -238.15253889 158.12674503 -239.70940703 148.14820898 C-240.91859715 140.39431125 -242.11962925 132.63917633 -243.31465417 124.88308299 C-244.025978 120.26766236 -244.74069293 115.65283083 -245.46410179 111.03928757 C-246.14402124 106.70180991 -246.81371856 102.36287075 -247.47594261 98.02265739 C-247.71897949 96.44119701 -247.96554162 94.86027319 -248.21611404 93.27998924 C-252.0281158 69.19815485 -252.0281158 69.19815485 -248.6875 61.125 C-244.42252271 57.07327158 -240.03002619 54.57543698 -234.0625 54.3125 C-226.11959366 55.20927975 -220.61382945 60.29981788 -214.5 65.0625 C-212.61166096 66.51820426 -210.72231806 67.97260714 -208.83203125 69.42578125 C-207.88408691 70.15490723 -206.93614258 70.8840332 -205.95947266 71.63525391 C-201.90737001 74.72661494 -197.801854 77.74226836 -193.6875 80.75 C-186.96203488 85.67496907 -180.30714596 90.68374001 -173.6875 95.75 C-164.65112759 102.661588 -155.54304931 109.46635843 -146.35058594 116.16894531 C-144.26159946 117.69583881 -142.1811557 119.23378748 -140.1015625 120.7734375 C-138.85978013 121.68284513 -137.61761727 122.59173351 -136.375 123.5 C-135.31667969 124.27859375 -134.25835937 125.0571875 -133.16796875 125.859375 C-127.96535564 129.15959092 -123.3228447 130.37393336 -117.1875 129.75 C-106.73579943 126.69854197 -101.94751869 118.71179744 -96.27734375 109.953125 C-95.72085144 109.10306885 -95.16435913 108.2530127 -94.59100342 107.37719727 C-93.39130075 105.54415385 -92.19366106 103.70975889 -90.99789429 101.87414551 C-87.77571831 96.92939092 -84.53641676 91.99588862 -81.296875 87.0625 C-80.2952961 85.53656219 -80.2952961 85.53656219 -79.27348328 83.97979736 C-72.22754074 73.26116171 -65.0624129 62.62409896 -57.875 52 C-56.9619812 50.65026093 -56.9619812 50.65026093 -56.03051758 49.27325439 C-55.12885864 47.94037384 -55.12885864 47.94037384 -54.20898438 46.58056641 C-53.02993251 44.83757553 -51.85089572 43.09457445 -50.671875 41.3515625 C-50.10799072 40.51815338 -49.54410645 39.68474426 -48.96313477 38.82608032 C-45.60745349 33.86272603 -42.26855269 28.88876964 -38.953125 23.8984375 C-38.57013748 23.32206543 -38.18714996 22.74569336 -37.79255676 22.15185547 C-36.10797819 19.61458038 -34.42714476 17.07490537 -32.75073242 14.53222656 C-24.72561373 2.41176163 -15.6308699 -6.11507086 0 0 Z " fill="#FFB643" transform="translate(266.1875,72.25)"/>
<path d="M0 0 C139.26 0 278.52 0 422 0 C422 57.96629213 422 57.96629213 416.25 64.75 C415.80140625 65.30171875 415.3528125 65.8534375 414.890625 66.421875 C410.12357574 70.40098223 405.13330758 71.37501869 399.07023716 71.38031673 C398.07401835 71.38730661 398.07401835 71.38730661 397.0576739 71.3944377 C394.84029305 71.40635405 392.62352876 71.39700576 390.40614319 71.38768005 C388.79712742 71.39185445 387.18811459 71.39733255 385.57910722 71.40399987 C381.16369505 71.41845923 376.74846945 71.41420822 372.33304703 71.40683305 C367.56881018 71.40210493 362.80461389 71.41460807 358.04039001 71.42485046 C348.70937357 71.44205056 339.37842443 71.44287599 330.04739625 71.43763756 C322.46371882 71.43359701 314.88006129 71.43503805 307.29638481 71.44038582 C305.6776858 71.44150845 305.6776858 71.44150845 304.02628581 71.44265376 C301.83407239 71.44418523 299.64185898 71.44572358 297.44964557 71.44726873 C276.88954808 71.46099807 256.32948863 71.45555295 235.76939201 71.44408352 C216.95761173 71.43414991 198.14592979 71.44709326 179.33416469 71.47101771 C160.01972225 71.49539647 140.70532564 71.50501964 121.39086813 71.49836498 C110.54664751 71.49487015 99.70250253 71.49712235 88.85829353 71.51461601 C79.62721855 71.52932264 70.39627248 71.52999352 61.16520006 71.5125451 C56.45533483 71.50402021 51.74570005 71.5019219 47.03584671 71.51719666 C42.72345399 71.53100929 38.41148992 71.52632486 34.09912222 71.50695742 C32.53998132 71.50318657 30.98080637 71.50615059 29.42169572 71.51656907 C20.31586528 71.57308539 13.2322331 71.42416621 5.9765625 65.2890625 C5.53054687 64.73992187 5.08453125 64.19078125 4.625 63.625 C3.93277344 62.80902344 3.93277344 62.80902344 3.2265625 61.9765625 C-7.6811747 44.39912612 0 20.68683157 0 0 Z " fill="#FFB743" transform="translate(45,370)"/>
</svg>
