<svg width="40" height="40" viewBox="0 0 40 40" fill="none" xmlns="http://www.w3.org/2000/svg">
<path d="M6.13932 25.3607C7.60021 33.1935 15.1343 38.359 22.9671 36.8981C30.8 35.4372 35.9654 27.9032 34.5046 20.0703C33.0437 12.2375 25.5096 7.07198 17.6768 8.53287C9.84392 9.99377 4.67843 17.5278 6.13932 25.3607Z" fill="#64748B"/>
<circle cx="3.6068" cy="3.6068" r="3.6068" transform="matrix(-0.983048 0.183347 0.183347 0.983048 9.05469 20.1836)" fill="#64748B"/>
<ellipse cx="3.6068" cy="3.60679" rx="3.6068" ry="3.60679" transform="matrix(-0.983048 0.183347 0.183347 0.983048 37.4766 20.1846)" fill="#64748B"/>
<path fill-rule="evenodd" clip-rule="evenodd" d="M5.86474 19.0889C8.01893 20.572 10.7401 21.1886 13.467 20.5763C16.2331 19.9552 18.4532 18.1933 19.7596 15.8834C21.8462 19.5601 26.1028 21.6153 30.3732 20.6564C31.9088 20.3115 33.2762 19.6152 34.4123 18.6686C34.3697 18.422 34.3207 18.1751 34.2652 17.9281C32.4878 10.0125 24.7445 5.0109 16.9702 6.75663C10.9106 8.11732 6.62069 13.1756 5.86474 19.0889Z" fill="#1E293B"/>
<path fill-rule="evenodd" clip-rule="evenodd" d="M30.6942 11.02L9.6656 10.821C10.1642 6.75425 14.7261 3.60095 20.2487 3.65321C25.7712 3.70547 30.2727 6.94455 30.6942 11.02Z" fill="#475569"/>
<rect x="6.15625" y="10.7891" width="28.04" height="3.50499" rx="1.16833" transform="rotate(0.542195 6.15625 10.7891)" fill="#475569"/>
<path d="M16.7168 6.21871C16.7352 4.28304 18.3192 2.72872 20.2548 2.74703C22.1905 2.76535 23.7448 4.34937 23.7265 6.28504L23.6823 10.9582L16.6726 10.8918L16.7168 6.21871Z" fill="#334155"/>
</svg>
