<?xml version="1.0" encoding="UTF-8"?>
<svg version="1.1" xmlns="http://www.w3.org/2000/svg" width="512" height="512">
<path d="M0 0 C0.89653793 -0.0065712 1.79307587 -0.0131424 2.71678162 -0.01991272 C5.68431692 -0.03962193 8.65180152 -0.05130679 11.61938477 -0.0612793 C12.63655138 -0.06535482 13.65371799 -0.06943035 14.70170784 -0.07362938 C20.09182659 -0.094486 25.48191995 -0.10878611 30.87207031 -0.11816406 C36.41309549 -0.12919128 41.95371498 -0.16354976 47.49459743 -0.20333576 C51.77658278 -0.22961573 56.05847343 -0.23786626 60.3405323 -0.24144554 C62.38126407 -0.24628686 64.42199232 -0.25782989 66.46264458 -0.27648354 C79.94030106 -0.39196577 92.54888674 -0.28040099 104.12329102 7.67700195 C104.96891602 8.24418945 105.81454102 8.81137695 106.68579102 9.39575195 C118.8466586 18.2825398 126.80164264 30.43427857 129.7033844 45.2293396 C130.46496205 50.57546585 130.32974563 55.91346602 130.24829102 61.30200195 C130.23926758 62.44926758 130.23024414 63.5965332 130.22094727 64.77856445 C130.19761639 67.57826943 130.16488334 70.3775189 130.12329102 73.17700195 C130.80320665 73.17423657 131.48312229 73.1714712 132.18364143 73.16862202 C148.73426037 73.1023434 165.28483721 73.05271226 181.83555794 73.02156544 C189.83939508 73.00610237 197.84314358 72.98502361 205.84692383 72.95068359 C212.82374216 72.92076402 219.8004963 72.90142287 226.77737701 72.89473647 C230.47094984 72.89082852 234.16433902 72.88165614 237.85785294 72.85981178 C241.98303596 72.83561275 246.10790051 72.8350336 250.2331543 72.83642578 C251.45523087 72.82563995 252.67730743 72.81485413 253.93641663 72.80374146 C260.74526819 72.82864955 265.7611272 73.07563491 270.98657227 77.89575195 C271.46481445 78.48356445 271.94305664 79.07137695 272.43579102 79.67700195 C272.92692383 80.26481445 273.41805664 80.85262695 273.92407227 81.45825195 C277.13704989 86.06317102 276.65632724 91.81660952 276.12329102 97.17700195 C274.36516542 102.58198236 270.59720851 105.940551 266.12329102 109.17700195 C263.00485852 110.21647945 260.84853515 110.29195033 257.58032227 110.2746582 C256.50717773 110.27143555 255.4340332 110.26821289 254.32836914 110.26489258 C253.20881836 110.25651367 252.08926758 110.24813477 250.93579102 110.23950195 C249.80463867 110.23499023 248.67348633 110.23047852 247.50805664 110.22583008 C244.71308175 110.21403694 241.91821281 110.19757845 239.12329102 110.17700195 C239.08807897 110.82438133 239.05286693 111.47176071 239.01658785 112.13875765 C236.92662463 150.56057805 234.83107221 188.98209 232.72832308 227.40321287 C232.47549845 232.02287538 232.22272023 236.64254042 231.9699707 241.26220703 C231.91965487 242.18184772 231.86933904 243.10148841 231.81749849 244.04899699 C231.00433016 258.91359541 230.19491619 273.77839597 229.38690467 288.64327549 C228.55690191 303.9111725 227.72282973 319.17884333 226.88502824 334.44631439 C226.36874483 343.85699678 225.85558582 353.26783862 225.34650145 362.67891324 C224.99646517 369.14412632 224.64245426 375.60911436 224.28540732 382.07394402 C224.07993836 385.79632515 223.87613636 389.51877635 223.67708397 393.24150658 C221.96274622 425.25660475 219.94004022 454.29441808 199.12329102 480.17700195 C198.60637695 480.85762695 198.08946289 481.53825195 197.55688477 482.23950195 C184.53068024 498.432478 163.53668391 509.34579271 143.12329102 512.17700195 C140.24040088 512.27400829 137.38163394 512.32484348 134.49905396 512.32417297 C133.64358691 512.32784966 132.78811987 512.33152635 131.90672958 512.33531445 C129.04678166 512.3463069 126.18687013 512.35018763 123.3269043 512.35400391 C121.27318711 512.36027209 119.21947105 512.3669192 117.16575623 512.37391663 C110.42504663 512.39492353 103.68433691 512.40531834 96.94360352 512.4152832 C94.61794905 512.41933252 92.2922947 512.42344949 89.96664047 512.42763329 C79.03482505 512.44668038 68.10301634 512.46091041 57.17118752 512.46924525 C44.57983536 512.47900534 31.98865957 512.5052949 19.3973695 512.54574615 C9.6484577 512.57598352 -0.10040378 512.59072149 -9.84936154 512.59402627 C-15.6636807 512.59636873 -21.47781135 512.60522374 -27.29207993 512.63048744 C-32.7701584 512.65390567 -38.24792608 512.65794643 -43.72604179 512.64772606 C-45.72535809 512.64723386 -47.7246904 512.65345984 -49.72395897 512.6672821 C-76.91757273 512.84461241 -99.22632691 504.80660211 -119.32202148 485.81762695 C-144.70955453 459.57607904 -146.70515553 426.98622827 -148.46152806 392.39236772 C-148.65239589 388.65750979 -148.84976945 384.92299449 -149.04629517 381.18843079 C-149.42889278 373.89908776 -149.80566948 366.6094553 -150.18046631 359.31970748 C-150.61751941 350.82406924 -151.06073339 342.32875566 -151.50424419 333.8334525 C-152.29509496 318.68151409 -153.08086075 303.52931642 -153.86352539 288.37695312 C-154.62275007 273.67854639 -155.38491033 258.98029617 -156.15063477 244.28222656 C-156.19790125 243.37493383 -156.24516773 242.46764109 -156.29386653 241.53285464 C-156.48387449 237.88574775 -156.67389152 234.23864134 -156.86392332 230.5915357 C-157.68274409 214.87532541 -158.49924157 199.15899429 -159.31535929 183.44264343 C-159.44743847 180.89944151 -159.57956749 178.35624217 -159.71170664 175.81304336 C-160.1737546 166.91919634 -160.63508297 158.02531282 -161.09445204 149.131327 C-161.28434228 145.45482846 -161.4745399 141.7783466 -161.6656189 138.10190964 C-161.87247331 134.12152136 -162.07770333 130.14105031 -162.28274536 126.16056824 C-162.34363629 124.99318546 -162.40452723 123.82580268 -162.46726334 122.62304467 C-162.54901474 121.02794563 -162.54901474 121.02794563 -162.63241768 119.40062237 C-162.70369776 118.02239049 -162.70369776 118.02239049 -162.77641785 116.61631554 C-162.86460375 114.47142945 -162.87670898 112.32370014 -162.87670898 110.17700195 C-163.91226929 110.20842285 -163.91226929 110.20842285 -164.96875 110.24047852 C-168.12541891 110.32411291 -171.281854 110.37581148 -174.43920898 110.42700195 C-175.52524414 110.46051758 -176.6112793 110.4940332 -177.73022461 110.52856445 C-185.37884142 110.62155675 -189.85949861 109.86094599 -195.61889648 104.5793457 C-200.26741114 98.56833537 -200.43954927 93.56826302 -199.87670898 86.17700195 C-198.12901146 80.72829791 -194.48392736 77.39158387 -189.87670898 74.17700195 C-186.79250758 73.14893482 -184.69773162 73.05370221 -181.4667511 73.05674744 C-179.78194138 73.05468544 -179.78194138 73.05468544 -178.06309509 73.05258179 C-176.8302327 73.05617706 -175.5973703 73.05977234 -174.32714844 73.06347656 C-172.38065399 73.06325752 -172.38065399 73.06325752 -170.39483643 73.06303406 C-166.83519644 73.06274682 -163.27559005 73.06863176 -159.71595788 73.07560802 C-155.99636521 73.08185369 -152.27677179 73.08244632 -148.55717468 73.08363342 C-141.51303125 73.08674315 -134.46890332 73.09495172 -127.42476672 73.10498291 C-119.40550483 73.11615516 -111.38624221 73.12165731 -103.36697447 73.12667835 C-86.87021023 73.13713462 -70.37346159 73.15472714 -53.87670898 73.17700195 C-53.90027466 72.13527832 -53.90027466 72.13527832 -53.92431641 71.07250977 C-53.98754032 67.85742686 -54.02597289 64.64247544 -54.06420898 61.42700195 C-54.0893457 60.33516602 -54.11448242 59.24333008 -54.14038086 58.1184082 C-54.28199612 42.16308855 -49.1371687 26.79460312 -37.87670898 15.17700195 C-26.86189014 5.31225978 -14.72743241 0.04691104 0 0 Z M-10.83764648 41.9309082 C-11.53760742 42.82616211 -11.53760742 42.82616211 -12.25170898 43.73950195 C-12.73381836 44.33891602 -13.21592773 44.93833008 -13.71264648 45.5559082 C-19.82112231 54.06267822 -15.87670898 58.35094861 -15.87670898 73.17700195 C19.76329102 73.17700195 55.40329102 73.17700195 92.12329102 73.17700195 C94.21913767 53.67827507 94.21913767 53.67827507 86.56079102 41.5324707 C81.19005857 37.16875059 77.18146315 37.02630237 70.43652344 37.01586914 C69.66689774 37.01090424 68.89727203 37.00593933 68.10432434 37.00082397 C65.56246032 36.98623938 63.02065872 36.97940645 60.47875977 36.97387695 C58.70762633 36.96812234 56.93649291 36.96236465 55.1653595 36.956604 C51.45235912 36.94610447 47.73938032 36.94025499 44.02636719 36.93676758 C39.27847782 36.93128585 34.53087566 36.90726029 29.78307629 36.87879562 C26.12412188 36.86013284 22.46523615 36.8549617 18.80623817 36.8534317 C17.05641421 36.85041273 15.30659125 36.84240981 13.55681419 36.82924652 C11.10373723 36.81211001 8.65135543 36.81408459 6.19824219 36.82055664 C5.48163422 36.81134186 4.76502625 36.80212708 4.02670288 36.79263306 C-1.70941514 36.83982143 -6.48732686 38.03988527 -10.83764648 41.9309082 Z M-124.87670898 110.17700195 C-124.90818615 118.5917784 -124.90818615 118.5917784 -124.64524174 126.96802044 C-124.5936075 127.97978932 -124.54197327 128.9915582 -124.48877436 130.03398675 C-124.43109225 131.10773374 -124.37341015 132.18148073 -124.3139801 133.2877655 C-124.25343238 134.45785465 -124.19288466 135.6279438 -124.13050216 136.83349019 C-123.96347892 140.05011218 -123.79391173 143.2665879 -123.62322319 146.48301709 C-123.4391144 149.96430784 -123.25834476 153.44577224 -123.07714844 156.92721558 C-122.72223236 163.73648441 -122.36428496 170.54559063 -122.0053174 177.35464694 C-121.58663544 185.29879008 -121.17108243 193.24309599 -120.75567173 201.18741075 C-120.01374049 215.37424831 -119.26913461 229.5609442 -118.52294922 243.74755859 C-117.8004906 257.48314404 -117.07968199 271.21881465 -116.36083984 284.95458984 C-116.31660031 285.79992117 -116.27236078 286.64525249 -116.22678066 287.51619991 C-116.13764724 289.21939389 -116.04851423 290.92258789 -115.95938164 292.62578191 C-115.91540259 293.46615723 -115.87142354 294.30653254 -115.82611179 295.17237377 C-115.78223785 296.01075748 -115.73836391 296.84914118 -115.69316045 297.71293045 C-115.00607161 310.84144803 -114.31769886 323.96989832 -113.62910135 337.09833684 C-113.42166336 341.05331905 -113.21428353 345.00830429 -113.00703931 348.96329665 C-112.57135199 357.27769014 -112.13521981 365.5920598 -111.69766349 373.90635516 C-111.51690309 377.34122054 -111.33637429 380.77609759 -111.15654564 384.21101189 C-110.28612458 400.92709975 -110.28612458 400.92709975 -109.32896423 417.63838196 C-109.25803023 418.81740743 -109.18709623 419.9964329 -109.11401272 421.21118641 C-107.82414423 437.33192727 -100.90941968 452.25914304 -88.87670898 463.17700195 C-77.98925552 471.57681768 -66.42220099 475.33342622 -52.75704956 475.31744385 C-51.95592999 475.32041497 -51.15481041 475.32338609 -50.32941449 475.32644725 C-47.65359961 475.33509645 -44.97782968 475.3366393 -42.30200195 475.33813477 C-40.37972417 475.34276566 -38.45744731 475.34779069 -36.53517151 475.35317993 C-31.31794566 475.36628089 -26.10073267 475.37274455 -20.88349295 475.37719059 C-17.62061103 475.38012541 -14.3577326 475.38423102 -11.09485245 475.38869476 C-0.87638169 475.40236445 9.34208108 475.41203335 19.56056035 475.41589665 C31.33803631 475.42037437 43.11539605 475.43791123 54.89283669 475.46689725 C64.0081465 475.48854898 73.12342369 475.49860282 82.23875892 475.49993777 C87.67732649 475.50098342 93.11578472 475.50683987 98.5543251 475.52475739 C103.6744995 475.54129816 108.79448308 475.54336449 113.91467476 475.53461838 C115.78666128 475.53385118 117.65865832 475.53814857 119.53061867 475.54807663 C137.3891211 475.63718281 153.58191174 473.24706412 167.09594727 460.3684082 C180.29663178 446.09946021 184.17170525 428.96377745 185.12944031 410.01298523 C185.20142397 408.76597346 185.27340764 407.51896168 185.34757262 406.23416167 C185.5425975 402.8174303 185.72783655 399.40043686 185.90871871 395.9829458 C186.10715282 392.28041963 186.31850772 388.57862685 186.52819824 384.87672424 C186.93591571 377.64369799 187.33198504 370.41007966 187.72412213 363.17619386 C188.18178695 354.74274329 188.65163926 346.30998465 189.12207148 337.87723825 C189.96116727 322.82944842 190.79005045 307.78111397 191.61279297 292.73242188 C192.41036 278.14449415 193.21398228 263.55691828 194.02490234 248.96972656 C194.09988848 247.62080672 194.09988848 247.62080672 194.17638948 246.24463596 C194.37737276 242.6294078 194.57836866 239.01418033 194.77938841 235.39895419 C195.60033967 220.63164302 196.41655685 205.86406967 197.23202538 191.09645486 C197.41760391 187.7359433 197.60336843 184.3754421 197.78929114 181.01494956 C198.27764418 172.1866759 198.76445483 163.35832177 199.24671706 154.52971306 C199.44604295 150.88092847 199.64609881 147.23218833 199.84828377 143.58356094 C200.06762008 139.62455505 200.28305951 135.66534254 200.49809265 131.70610046 C200.59424229 129.98547591 200.59424229 129.98547591 200.69233435 128.23009127 C200.7783858 126.62773441 200.7783858 126.62773441 200.86617565 124.99300671 C200.9161914 124.08053336 200.96620715 123.16806002 201.01773852 122.22793597 C201.15663526 118.21320585 201.12329102 114.19413404 201.12329102 110.17700195 C93.54329102 110.17700195 -14.03670898 110.17700195 -124.87670898 110.17700195 Z " fill="#64748B" transform="translate(217.876708984375,-0.177001953125)"/>
<path d="M0 0 C5.04718481 4.32615841 7.09074884 7.775194 8.625 14.25 C8.80556942 16.92868247 8.90002331 19.50012819 8.88569641 22.17515564 C8.89143473 23.32722208 8.89143473 23.32722208 8.89728898 24.50256258 C8.90755691 27.06029163 8.90363873 29.61779358 8.8996582 32.17553711 C8.90400809 34.01578477 8.90919216 35.85603063 8.91514587 37.6962738 C8.92851668 42.68386115 8.92911672 47.67137263 8.92658257 52.65897441 C8.92551166 56.82647324 8.93039928 60.9939568 8.935188 65.16145235 C8.94627635 74.99460945 8.94672423 84.82772835 8.94067383 94.66088867 C8.93463251 104.79755409 8.94695064 114.93408077 8.9682439 125.07072252 C8.98586814 133.78175361 8.99185999 142.49274056 8.98860615 151.20378882 C8.98679462 156.4029919 8.98941667 161.60209598 9.00332069 166.80128288 C9.01590793 171.69083534 9.0139464 176.58017165 9.00090981 181.46972084 C8.99854651 183.26114348 9.00126984 185.05258137 9.00953293 186.84398651 C9.0200231 189.29552715 9.01188197 191.74634552 8.9992218 194.19786072 C9.00659609 194.90128143 9.01397037 195.60470214 9.02156812 196.32943863 C8.95868551 202.14507313 7.6993069 207.64832695 4.01171875 212.2734375 C-1.3159337 216.5110645 -5.42484837 218.53016579 -12.375 218.125 C-18.21397992 217.37101761 -21.64038634 215.1291648 -25.625 210.8125 C-29.06579547 205.77419235 -29.66815409 201.45868664 -29.64242554 195.45146179 C-29.64695665 194.67287569 -29.65148776 193.89428959 -29.65615618 193.09210998 C-29.6688027 190.48672043 -29.66717965 187.88153986 -29.66552734 185.27612305 C-29.67151246 183.40661348 -29.67831797 181.53710638 -29.68588257 179.66760254 C-29.70355202 174.59106387 -29.70823836 169.51459263 -29.70951414 164.43802619 C-29.71093582 161.26546321 -29.71520575 158.09291738 -29.72050858 154.92035866 C-29.73901234 143.84964535 -29.7471788 132.77898021 -29.74560547 121.70825195 C-29.74440414 111.3932313 -29.76550393 101.07841993 -29.7970928 90.76345223 C-29.82325662 81.90384173 -29.83397271 73.04429956 -29.83269465 64.18465072 C-29.83218503 58.89483746 -29.83786846 53.60521015 -29.85905075 48.31543541 C-29.87843469 43.33886356 -29.87855644 38.36265502 -29.86401749 33.38607025 C-29.86192846 31.56239351 -29.86663591 29.73869401 -29.8787384 27.91505623 C-29.89422411 25.41944268 -29.8848616 22.9250767 -29.86947632 20.42948914 C-29.88490701 19.35480244 -29.88490701 19.35480244 -29.90064943 18.25840491 C-29.8200039 12.3121033 -27.98136399 7.15455167 -23.99851358 2.71603316 C-16.91095054 -3.62669018 -8.32185108 -4.31503389 0 0 Z " fill="#64748B" transform="translate(321.375,184.75)"/>
<path d="M0 0 C4.24448702 3.55352402 6.99248995 6.96837901 8.6875 12.25 C8.87712966 14.88568475 8.96620737 17.41440255 8.95492554 20.04853821 C8.95945665 20.82712431 8.96398776 21.60571041 8.96865618 22.40789002 C8.9813027 25.01327957 8.97967965 27.61846014 8.97802734 30.22387695 C8.98401246 32.09338652 8.99081797 33.96289362 8.99838257 35.83239746 C9.01605202 40.90893613 9.02073836 45.98540737 9.02201414 51.06197381 C9.02343582 54.23453679 9.02770575 57.40708262 9.03300858 60.57964134 C9.05151234 71.65035465 9.0596788 82.72101979 9.05810547 93.79174805 C9.05690414 104.1067687 9.07800393 114.42158007 9.1095928 124.73654777 C9.13575662 133.59615827 9.14647271 142.45570044 9.14519465 151.31534928 C9.14468503 156.60516254 9.15036846 161.89478985 9.17155075 167.18456459 C9.19093469 172.16113644 9.19105644 177.13734498 9.17651749 182.11392975 C9.17442846 183.93760649 9.17913591 185.76130599 9.1912384 187.58494377 C9.20672411 190.08055732 9.1973616 192.5749233 9.18197632 195.07051086 C9.19226344 195.78696866 9.20255057 196.50342645 9.21314943 197.24159509 C9.1325039 203.1878967 7.29386399 208.34544833 3.31101358 212.78396684 C-0.63966758 216.31946663 -4.38134277 218.21168422 -9.703125 218.28125 C-16.6291888 217.86651564 -20.72668174 215.97947483 -25.5625 210.875 C-29.04710843 205.64808736 -29.60603794 200.60317456 -29.57319641 194.451828 C-29.57702196 193.6853437 -29.58084751 192.9188594 -29.58478898 192.1291483 C-29.59507597 189.57064747 -29.59113503 187.01237286 -29.5871582 184.45385742 C-29.59150711 182.61537977 -29.59669086 180.77690394 -29.60264587 178.93843079 C-29.61602923 173.9507171 -29.61661517 168.96307923 -29.61408257 163.9753511 C-29.61301221 159.8079967 -29.61789801 155.6406576 -29.622688 151.47330648 C-29.63378133 141.6386868 -29.63422185 131.80410532 -29.62817383 121.96948242 C-29.62213611 111.83342575 -29.63444034 101.69750796 -29.6557439 91.56147498 C-29.67337561 82.85129767 -29.67935869 74.1411645 -29.67610615 65.43097001 C-29.67429534 60.23227908 -29.67690918 55.03368717 -29.69082069 49.83501244 C-29.70341959 44.94382864 -29.70143539 40.0528608 -29.68840981 35.16168022 C-29.68604881 33.37067847 -29.68876158 31.57966142 -29.69703293 29.78867722 C-29.78505203 9.24175394 -29.78505203 9.24175394 -24.69920826 3.39549541 C-17.69581983 -3.37805858 -8.51681366 -4.49944872 0 0 Z " fill="#64748B" transform="translate(211.3125,184.75)"/>
</svg>
