<?xml version="1.0" encoding="UTF-8"?>
<svg version="1.1" xmlns="http://www.w3.org/2000/svg" width="512" height="512">
<path d="M0 0 C1.46705132 -0.00572166 2.93409821 -0.01269274 4.40113831 -0.02079773 C8.33461189 -0.03853262 12.26786009 -0.03760016 16.20136142 -0.03185534 C19.49940655 -0.02873901 22.79740989 -0.03488184 26.09544903 -0.04089409 C33.8748669 -0.05486882 41.65417475 -0.05343324 49.43359375 -0.04199219 C57.43922214 -0.03047823 65.4445168 -0.04465744 73.45010132 -0.07138866 C80.35240634 -0.09356641 87.25460671 -0.10017954 94.15694481 -0.09431225 C98.26730852 -0.09095122 102.37745762 -0.09330251 106.48779106 -0.11056328 C110.34665359 -0.12606706 114.20502055 -0.12203945 118.06386375 -0.10325813 C119.47472797 -0.09958376 120.88562925 -0.10264704 122.2964592 -0.11314392 C130.17301529 -0.16725377 135.96970063 0.03847787 142.65454102 4.40405273 C146.39861614 8.14812786 146.95166155 11.28134621 147.15454102 16.40405273 C146.95166155 21.52675926 146.39861614 24.65997761 142.65454102 28.40405273 C135.40829727 33.13559951 128.67645273 32.96545715 120.22729492 32.90234375 C118.77437281 32.90617201 117.32145449 32.91179537 115.86854553 32.91906738 C112.75230674 32.9309764 109.63640514 32.93056099 106.52016068 32.9204731 C101.58512619 32.90484603 96.6504345 32.91863666 91.71542358 32.93650818 C82.12663371 32.96727187 72.53794968 32.96883198 62.94911957 32.96685791 C50.75135708 32.96546351 38.5536764 32.97592886 26.3559736 33.01543564 C21.45799576 33.03030727 16.5603245 33.03014551 11.66234231 33.01795781 C8.60587869 33.01322256 5.54953063 33.0208041 2.49308586 33.03150177 C1.08467839 33.03389293 -0.32374901 33.03122604 -1.73213387 33.02289391 C-16.49567513 32.94083196 -28.43912298 36.2585556 -39.49389648 46.38842773 C-46.75936775 54.29767494 -51.46309527 65.15135169 -51.47688675 75.89710426 C-51.48264847 77.58228013 -51.48264847 77.58228013 -51.48852658 79.30149996 C-51.4876601 80.53591275 -51.48679362 81.77032554 -51.48590088 83.04214478 C-51.488872 84.35341068 -51.49184312 85.66467658 -51.49490428 87.01567781 C-51.50297355 90.65864496 -51.50476381 94.30159241 -51.50550175 97.94456744 C-51.50735246 101.87247417 -51.51489996 105.80037067 -51.52163696 109.72827148 C-51.53522096 118.31933975 -51.5412453 126.91040336 -51.54564762 135.50148058 C-51.5484103 140.86658229 -51.55264774 146.23168219 -51.55715179 151.59678268 C-51.56934525 166.45292612 -51.57964396 181.30906811 -51.58302689 196.16521645 C-51.58324645 197.11613116 -51.58346602 198.06704588 -51.58369224 199.0467762 C-51.58391052 199.99996246 -51.58412879 200.95314872 -51.58435369 201.93521941 C-51.58479715 203.86672505 -51.58524371 205.79823069 -51.58569336 207.72973633 C-51.5860255 209.1668756 -51.5860255 209.1668756 -51.58636436 210.63304798 C-51.59031105 226.15218976 -51.6077608 241.67128455 -51.63105288 257.19040819 C-51.65477683 273.12601985 -51.66722924 289.06160795 -51.6683948 304.99723756 C-51.66931105 313.94349309 -51.67505062 322.88968741 -51.69321442 331.83592606 C-51.70862957 339.45522804 -51.71372757 347.07444991 -51.70547631 354.69376452 C-51.70157462 358.57955286 -51.70247573 362.46517993 -51.71653366 366.35094833 C-51.72930173 369.91285338 -51.72804982 373.47447647 -51.71594295 377.03638129 C-51.71307086 378.9256472 -51.7248998 380.81491811 -51.73736501 382.70414507 C-51.65909733 396.23321799 -47.5651324 407.50807218 -38.36108398 417.55249023 C-30.45183678 424.8179615 -19.59816003 429.52168902 -8.85240746 429.5354805 C-7.72895687 429.53932164 -6.60550629 429.54316279 -5.44801176 429.54712033 C-4.21359897 429.54625385 -2.97918618 429.54538737 -1.70736694 429.54449463 C-0.39610104 429.54746575 0.91516486 429.55043687 2.26616609 429.55349803 C5.90913324 429.5615673 9.55208069 429.56335756 13.19505572 429.5640955 C17.12296245 429.56594621 21.05085895 429.57349371 24.97875977 429.58023071 C33.56982804 429.59381471 42.16089164 429.59983905 50.75196886 429.60424137 C56.11707057 429.60700405 61.48217048 429.61124149 66.84727097 429.61574554 C81.7034144 429.627939 96.55955639 429.63823771 111.41570473 429.64162064 C112.8420768 429.64194999 112.8420768 429.64194999 114.29726448 429.64228599 C115.25045074 429.64250427 116.203637 429.64272254 117.18570769 429.64294744 C119.11721333 429.6433909 121.04871897 429.64383746 122.98022461 429.64428711 C124.41736388 429.64461925 124.41736388 429.64461925 125.88353626 429.64495811 C141.40267805 429.6489048 156.92177283 429.66635455 172.44089647 429.68964663 C188.37650813 429.71337058 204.31209623 429.72582299 220.24772584 429.72698855 C229.19398137 429.7279048 238.14017569 429.73364437 247.08641434 429.75180817 C254.70571632 429.76722332 262.32493819 429.77232132 269.9442528 429.76407006 C273.83004114 429.76016837 277.71566821 429.76106948 281.60143661 429.77512741 C285.16334166 429.78789548 288.72496475 429.78664357 292.28686957 429.7745367 C294.17613548 429.77166461 296.06540639 429.78349355 297.95463336 429.79595876 C311.48370627 429.71769108 322.75856046 425.62372615 332.80297852 416.41967773 C340.29130717 408.26782629 344.77306619 397.34318978 344.7858429 386.32025146 C344.78985107 385.07260513 344.79385925 383.8249588 344.79798889 382.539505 C344.79751382 381.15939329 344.79697771 379.77928159 344.79638672 378.39916992 C344.79941935 376.94359736 344.8029411 375.48802574 344.80691528 374.03245544 C344.81479733 370.89878993 344.81994661 367.76513576 344.82320595 364.6314621 C344.82912373 359.67218048 344.84567185 354.71297034 344.86454773 349.75372314 C344.87088498 348.05466847 344.8772106 346.35561375 344.88352489 344.65655899 C344.88669071 343.80570237 344.88985652 342.95484574 344.89311826 342.07820559 C344.93516285 330.53465299 344.96816336 318.99113384 344.98046875 307.44750977 C344.98885727 299.65824776 345.01137696 291.869163 345.04982442 284.07998967 C345.06955805 279.96052982 345.08199864 275.84133477 345.07699013 271.72182465 C345.07233305 267.84420083 345.08620627 263.96707851 345.11400223 260.08955574 C345.12089619 258.67065388 345.12105991 257.25169996 345.11380196 255.83279991 C345.07752541 247.9405852 345.27736689 242.10157805 349.65454102 235.40405273 C353.39861614 231.65997761 356.53183449 231.1069322 361.65454102 230.90405273 C366.77724754 231.1069322 369.91046589 231.65997761 373.65454102 235.40405273 C378.3738533 242.64054404 378.2253057 249.35910715 378.17211914 257.79614258 C378.17754723 259.24593812 378.18467374 260.69572813 378.19335938 262.14550781 C378.21153057 266.06774382 378.2045468 269.9895569 378.19184303 273.91179991 C378.18166365 278.03802284 378.19112414 282.16421132 378.1973877 286.29043579 C378.20465797 293.22892695 378.19510131 300.16724766 378.17602539 307.10571289 C378.15434362 315.08317676 378.16124681 323.06023024 378.18333101 331.03768384 C378.20160596 337.9187842 378.20398229 344.79976239 378.19357634 351.68087924 C378.18739618 355.7760027 378.18635035 359.87093484 378.19972229 363.96604538 C378.3146768 404.70768951 378.3146768 404.70768951 369.90454102 419.90405273 C369.56165039 420.55438477 369.21875977 421.2047168 368.86547852 421.87475586 C365.75674553 427.58733637 362.04605981 432.60462607 357.65454102 437.40405273 C357.06415039 438.0859668 356.47375977 438.76788086 355.86547852 439.47045898 C342.76017595 453.71899007 323.61601646 461.5355543 304.51766276 462.57473707 C295.94517501 462.84147193 287.37013821 462.81850006 278.79453409 462.79622674 C274.88513751 462.78937544 270.97577961 462.79994723 267.06639099 462.8081665 C259.4287184 462.82144146 251.79113471 462.81865421 244.15345877 462.80992858 C237.94162407 462.80312822 231.72981412 462.80224543 225.51797676 462.80550003 C224.63080912 462.80595973 223.74364149 462.80641943 222.82958998 462.80689306 C221.02682649 462.80785232 219.224063 462.80882496 217.42129952 462.80981083 C200.55400352 462.81834632 183.68675658 462.80855932 166.81946862 462.79240973 C152.37311079 462.77900591 137.92682529 462.78133876 123.48046875 462.79516602 C106.66821862 462.81125044 89.85601139 462.81752496 73.04375464 462.80832922 C71.24826627 462.80737366 69.45277789 462.80643055 67.65728951 462.80550003 C66.77407648 462.8050372 65.89086346 462.80457438 64.98088641 462.80409753 C58.782092 462.80151639 52.583325 462.8058596 46.38453484 462.81293869 C38.82238117 462.82138568 31.26032083 462.81900661 23.69817775 462.80309646 C19.84612423 462.7952569 15.99422585 462.79204768 12.14217377 462.80204391 C7.95300238 462.81274994 3.76421663 462.79989631 -0.42494202 462.78500366 C-1.62322083 462.79169583 -2.82149964 462.79838799 -4.05608994 462.80528295 C-27.1593615 462.64696632 -46.84877518 454.61728836 -63.34545898 438.40405273 C-64.28518555 437.48366211 -64.28518555 437.48366211 -65.24389648 436.54467773 C-79.89248292 421.03440974 -84.5004801 401.05936027 -84.48590088 380.36291504 C-84.49035756 378.38521236 -84.49035756 378.38521236 -84.49490428 376.3675561 C-84.5029442 372.7182169 -84.50476217 369.06889742 -84.50550175 365.41955042 C-84.50735759 361.47933078 -84.51490766 357.53912124 -84.52163696 353.59890747 C-84.5352001 344.98702063 -84.54124205 336.37513846 -84.54564762 327.76324272 C-84.54841384 322.38116737 -84.55265192 316.9990938 -84.55715179 311.61701965 C-84.56934255 296.70243187 -84.57964177 281.78784552 -84.58302689 266.87325287 C-84.58324645 265.9192661 -84.58346602 264.96527933 -84.58369224 263.98238388 C-84.58401965 262.54806204 -84.58401965 262.54806204 -84.58435369 261.084764 C-84.58479714 259.14724827 -84.58524371 257.20973253 -84.58569336 255.2722168 C-84.58591479 254.31115078 -84.58613622 253.35008476 -84.58636436 252.35989553 C-84.59030951 236.79905665 -84.60775575 221.23826469 -84.63105288 205.67744392 C-84.65480337 189.68408251 -84.66723044 173.6907446 -84.6683948 157.69736528 C-84.66930956 148.72472611 -84.67501147 139.75214804 -84.69321442 130.77952576 C-84.70866548 123.13665095 -84.71370652 115.49385613 -84.70547631 107.85096866 C-84.70158726 103.95643898 -84.70241324 100.06207014 -84.71653366 96.16756058 C-84.72937843 92.59194461 -84.72798382 89.01660858 -84.71594295 85.44099241 C-84.71309594 83.55655919 -84.72484113 81.67212064 -84.73736501 79.78772688 C-84.62220012 59.61733376 -78.56800674 41.75926948 -65.34545898 26.40405273 C-64.65838867 25.60483398 -63.97131836 24.80561523 -63.26342773 23.98217773 C-46.58112038 6.0309008 -23.81307166 -0.08555663 0 0 Z " fill="#64748B" transform="translate(109.345458984375,24.595947265625)"/>
<path d="M0 0 C4.22616908 3.61273397 8.19632072 7.47134075 12.12597656 11.40234375 C13.5520533 12.82404155 14.99341131 14.2289097 16.43603516 15.63378906 C31.24543391 30.38156757 39.30074895 47.5313088 39.80712891 68.57910156 C39.13679166 96.47095992 25.64462794 113.47406244 6.87719727 132.19921875 C5.07543847 134.0113209 3.27450606 135.82424503 1.47433472 137.63792419 C-2.89365545 142.03365777 -7.27098031 146.41989289 -11.65347613 150.80115953 C-15.21886143 154.36570926 -18.78086114 157.93360842 -22.34054375 161.50385284 C-33.55650383 172.75244052 -44.78419584 183.98918473 -56.0208646 195.21708396 C-64.86245529 204.05269397 -73.68571747 212.90635505 -82.50068099 221.76852307 C-91.57521752 230.89127019 -100.66281585 240.00082219 -109.76422781 249.09675908 C-114.86445475 254.19441865 -119.9593595 259.29713457 -125.0403614 264.41396332 C-129.82010266 269.22714396 -134.61790556 274.02158106 -139.42815018 278.80430794 C-141.18446415 280.55618168 -142.93489705 282.31397567 -144.67875099 284.07825279 C-160.81167123 300.38715614 -173.71638305 308.17908882 -197.01153946 308.37478924 C-199.67097477 308.38287824 -202.33030065 308.38219512 -204.98974609 308.37988281 C-206.86297703 308.3837769 -208.73620709 308.38811302 -210.60943604 308.39286804 C-214.51602049 308.40029136 -218.42251448 308.40006565 -222.32910156 308.39477539 C-227.32454877 308.38896068 -232.31962761 308.40597877 -237.31501389 308.42912006 C-241.17555895 308.44387106 -245.0360153 308.44472767 -248.89658356 308.44161034 C-250.73850489 308.44212203 -252.58043138 308.44733109 -254.42232513 308.45742226 C-256.99679966 308.46980741 -259.57055586 308.46298474 -262.14501953 308.45141602 C-262.89738388 308.45905975 -263.64974823 308.46670349 -264.4249115 308.47457886 C-270.79099473 308.41159131 -275.3686318 306.88736498 -280.38037109 302.76660156 C-284.58496673 297.60095549 -284.86380113 292.26780572 -284.8425293 285.81738281 C-284.84764023 285.00994125 -284.85275116 284.20249969 -284.85801697 283.37059021 C-284.87187249 280.71085103 -284.87095798 278.05137248 -284.86865234 275.39160156 C-284.87254401 273.52799383 -284.87687964 271.66438697 -284.88163757 269.80078125 C-284.88909299 265.89368824 -284.88881526 261.98668557 -284.88354492 258.07958984 C-284.87777827 253.10822701 -284.89461642 248.13724015 -284.9178896 243.16593933 C-284.93273632 239.31367888 -284.93348342 235.46150642 -284.93037987 231.60922241 C-284.9308885 229.77866883 -284.93603877 227.94810972 -284.94619179 226.11758423 C-285.03519961 207.81207654 -283.43775751 191.55758367 -269.99045324 177.82830459 C-269.29376359 177.14208642 -268.59707393 176.45586825 -267.87927246 175.74885559 C-267.12448309 174.98556071 -266.36969373 174.22226582 -265.59203196 173.43584079 C-263.08460718 170.90630644 -260.55988736 168.3948171 -258.03466797 165.88305664 C-256.22298066 164.06294845 -254.41234935 162.24178863 -252.60269165 160.41966248 C-248.20984504 156.0008355 -243.80363532 151.59557641 -239.39225274 147.19526175 C-235.80319659 143.61479386 -232.21890604 140.02961924 -228.63789368 136.4411068 C-228.12653155 135.92868978 -227.61516942 135.41627276 -227.08831146 134.88832795 C-226.04919111 133.84703646 -225.01007858 132.80573716 -223.97097379 131.76443013 C-214.24355531 122.0176167 -204.50053235 112.28652214 -194.75229484 102.56053712 C-186.40905526 94.23553434 -178.08048341 85.89608555 -169.76220703 77.54614258 C-160.08019038 67.82726932 -150.38826153 58.1184466 -140.68121767 48.42456549 C-139.64358729 47.38827606 -138.60597288 46.35197064 -137.56837463 45.31564903 C-137.05799002 44.80589508 -136.54760541 44.29614114 -136.02175459 43.7709401 C-132.44582879 40.19802774 -128.87705508 36.61806861 -125.31114197 33.03516579 C-120.49891685 28.20035732 -115.67092399 23.3817776 -110.83228683 18.57340431 C-109.06558229 16.81300037 -107.30389444 15.04754409 -105.54782486 13.27653122 C-76.29624475 -16.20358208 -35.23053756 -28.15132854 0 0 Z M-83.13037109 36.51660156 C-83.94828125 37.34353516 -84.76619141 38.17046875 -85.60888672 39.02246094 C-87.59992716 41.0367884 -89.58609907 43.055662 -91.56787109 45.07910156 C-90.29616725 47.86292199 -88.98726827 49.90844735 -86.82174683 52.06573486 C-86.26366333 52.62656769 -85.70557983 53.18740051 -85.13058472 53.76522827 C-84.21564743 54.66937973 -84.21564743 54.66937973 -83.28222656 55.59179688 C-82.63819885 56.23611664 -81.99417114 56.8804364 -81.33062744 57.54428101 C-79.20347802 59.67003854 -77.06933497 61.78862664 -74.93505859 63.90722656 C-73.45774516 65.38080937 -71.98087305 66.85483474 -70.50442505 68.32928467 C-66.6191674 72.20690977 -62.72794081 76.07849097 -58.83544922 79.94885254 C-54.86373431 83.90010095 -50.8976821 87.85702417 -46.93115234 91.81347656 C-39.14892989 99.57425577 -31.36039111 107.32866305 -23.56787109 115.07910156 C-18.12319728 112.49535134 -14.42448244 108.30426228 -10.19287109 104.07910156 C-8.93603516 102.85900391 -8.93603516 102.85900391 -7.65380859 101.61425781 C1.5978375 92.40625156 7.66344844 83.29698937 7.80712891 69.89160156 C7.52703306 53.20118466 -0.65604513 43.62735045 -12.00537109 32.32910156 C-12.71757812 31.60078125 -13.42978516 30.87246094 -14.16357422 30.12207031 C-23.30382035 20.97352241 -32.33070902 15.84645521 -45.44287109 15.64160156 C-62.23528567 15.78580937 -71.93451311 25.08116144 -83.13037109 36.51660156 Z M-119.3192448 72.55832636 C-119.83275983 73.07562072 -120.34627486 73.59291507 -120.87535095 74.12588501 C-121.6955332 74.94032894 -121.6955332 74.94032894 -122.5322848 75.77122629 C-124.37570494 77.60427179 -126.21183766 79.44444983 -128.0480957 81.28466797 C-129.36329495 82.59552306 -130.67891255 83.90595852 -131.99491882 85.21600342 C-135.57821956 88.78586717 -139.15503856 92.36215998 -142.73036265 95.94001055 C-145.71309385 98.92380884 -148.69879037 101.90463104 -151.68445307 104.88549554 C-158.72925867 111.91918851 -165.76870007 118.95821901 -172.80493164 126.00048828 C-180.06592462 133.26751603 -187.33603121 140.5253332 -194.61069101 147.77867758 C-200.85138774 154.00175924 -207.08626261 160.2306319 -213.31653029 166.4641546 C-217.03952674 170.18896508 -220.76472009 173.91150958 -224.49555779 177.62846756 C-228.00619857 181.12653722 -231.50951314 184.63178217 -235.00734138 188.14266205 C-236.29189566 189.42958364 -237.57900976 190.71395599 -238.86886597 191.99556351 C-240.63074736 193.74698875 -242.38310642 195.50742897 -244.13340759 197.27041626 C-244.6446919 197.77432628 -245.15597621 198.27823631 -245.68275398 198.79741633 C-250.86592928 204.05981031 -252.95008455 208.55472423 -252.90844727 215.91064453 C-252.90888535 216.56500992 -252.90932343 217.21937531 -252.90977478 217.89356995 C-252.90770024 220.03645646 -252.88443437 222.17854083 -252.86083984 224.32128906 C-252.85523909 225.81486585 -252.85097126 227.30844818 -252.84797668 228.80203247 C-252.83656551 232.71809313 -252.807131 236.6338158 -252.77386475 240.54974365 C-252.74308304 244.55167063 -252.7294541 248.55365263 -252.71435547 252.55566406 C-252.68225722 260.39696436 -252.63110663 268.23799082 -252.56787109 276.07910156 C-243.95310653 276.17198426 -235.33855291 276.24295851 -226.72341061 276.28635025 C-222.72257169 276.30718139 -218.72207661 276.33541615 -214.72143555 276.38085938 C-210.85699164 276.42447836 -206.99287743 276.44827229 -203.12820625 276.45861053 C-201.65745419 276.46597328 -200.18671916 276.48035106 -198.71610832 276.50202179 C-196.64799583 276.53127156 -194.58122712 276.53504893 -192.51293945 276.53320312 C-191.33823593 276.54208557 -190.16353241 276.55096802 -188.95323181 276.56011963 C-182.1101088 275.58779612 -177.38282346 271.33754198 -172.67689514 266.54888916 C-171.85325498 265.72909392 -171.85325498 265.72909392 -171.01297563 264.89273715 C-169.18952917 263.07420067 -167.37695829 261.24521055 -165.56420898 259.41601562 C-164.25349305 258.10445281 -162.94211486 256.79355154 -161.63012695 255.48326111 C-158.08051819 251.93451137 -154.5402208 248.37660303 -151.00154424 244.81695652 C-147.29803273 241.09466283 -143.58599643 237.38089025 -139.87486267 233.66619873 C-132.85315903 226.63517918 -125.83913641 219.59654882 -118.82785267 212.55514026 C-110.84345211 204.53718165 -102.8505086 196.52776261 -94.85684216 188.51904345 C-78.41767327 172.0485358 -61.98924201 155.56735279 -45.56787109 139.07910156 C-46.83786713 136.3018397 -48.14546663 134.25090832 -50.30053711 132.09246826 C-50.85573029 131.53163544 -51.41092346 130.97080261 -51.98294067 130.39297485 C-52.58975677 129.79020721 -53.19657288 129.18743958 -53.82177734 128.56640625 C-54.46259247 127.92208649 -55.10340759 127.27776672 -55.76364136 126.61392212 C-57.88088378 124.48788435 -60.00534951 122.36923684 -62.13037109 120.25097656 C-63.60275076 118.77724995 -65.07483341 117.30322653 -66.54663086 115.82891846 C-69.63022012 112.74238118 -72.7173971 109.65948956 -75.80712891 106.57910156 C-79.77542004 102.62222469 -83.73463953 98.65641135 -87.6912384 94.68784714 C-90.72784354 91.64403181 -93.76917526 88.60497539 -96.8119812 85.56735992 C-98.27435316 84.10632576 -99.73523092 82.64379449 -101.1946106 81.17977142 C-103.22960817 79.13972031 -105.27086193 77.10614786 -107.31396484 75.07421875 C-107.92078094 74.46335419 -108.52759705 73.85248962 -109.15280151 73.22311401 C-113.71557839 68.7066858 -114.64764743 67.9448336 -119.3192448 72.55832636 Z " fill="#64748B" transform="translate(447.56787109375,40.9208984375)"/>
</svg>
