<svg version="1.2" xmlns="http://www.w3.org/2000/svg" viewBox="0 0 40 40" width="40" height="40">
	<title>image3-svg</title>
	<style>
		.s0 { fill: #64748b } 
	</style>
	<path fill-rule="evenodd" class="s0" d="m30.2 18v4.2c0 4.5-3.6 8-8 8h-4.2c-4.4 0-8-3.5-8-8v-4.2c0-4.4 3.6-8 8-8h4.2c4.4 0 8 3.6 8 8zm-16.1-1.9c0 1.1 0.9 2 2 2 1.1 0 2-0.9 2-2 0-1.1-0.9-2-2-2-1.1 0-2 0.9-2 2zm9.4 12c2.8-1 4.7-3.7 4.7-6.8v-1.7c0-0.4-0.1-1.2-0.1-1.2h-1.6c-3.8 0.1-7.2 2.2-8.9 5.6-1.2-1.1-2.8-1.7-4.5-1.8l-1.2 0.1c-0.1 2.3 1.2 4.4 3.2 5.5q1.2 0.6 2.4 0.6h4.2q0.9 0 1.8-0.3z"/>
</svg>