<?xml version="1.0" encoding="UTF-8"?>
<svg version="1.1" xmlns="http://www.w3.org/2000/svg" width="512" height="512">
<path d="M0 0 C40.73258691 37.09857902 66.02515215 90.53183589 68.75683594 145.60009766 C71.35658136 205.24748248 50.85149524 260.57794808 10.75683594 304.60009766 C-27.93161451 345.99314124 -82.40228689 369.90666696 -138.90722656 371.81884766 C-198.08328558 373.11538802 -253.02557579 351.0823785 -295.70410156 310.33056641 C-335.85961751 271.24795203 -358.30392739 216.78829495 -359.52661133 160.9831543 C-359.87789954 124.61154053 -351.66574818 88.59634434 -334.24316406 56.60009766 C-333.62957031 55.44638672 -333.01597656 54.29267578 -332.38378906 53.10400391 C-305.22592932 3.66996582 -258.22764969 -32.77774766 -204.27685547 -48.56396484 C-131.67349184 -68.56991343 -55.96347388 -49.91545887 0 0 Z M-270.24316406 27.60009766 C-271.06171875 28.34646484 -271.88027344 29.09283203 -272.72363281 29.86181641 C-304.76897952 60.54594484 -324.30499127 106.38312965 -325.44628906 150.49072266 C-326.08944249 202.75820377 -307.55492475 249.27894301 -271.18066406 286.91259766 C-257.90766671 299.74952118 -242.55790915 310.07868381 -226.24316406 318.60009766 C-225.64455566 318.91575684 -225.04594727 319.23141602 -224.42919922 319.55664062 C-183.75201949 340.69072041 -133.65302664 343.24981151 -90.24316406 329.60009766 C-43.971567 313.95696377 -6.80157947 281.78950301 15.75683594 238.60009766 C16.23032471 237.70218506 16.23032471 237.70218506 16.71337891 236.78613281 C38.33618614 195.16828973 39.93505909 145.45981981 26.0234375 101.27050781 C17.39044318 74.665997 2.52883471 52.10066555 -16.24316406 31.60009766 C-16.93796875 30.83310547 -17.63277344 30.06611328 -18.34863281 29.27587891 C-48.6905858 -2.61875398 -94.74503406 -21.26919045 -138.30566406 -22.61865234 C-188.28892702 -23.60369127 -233.37418381 -6.05335211 -270.24316406 27.60009766 Z " fill="#64748B" transform="translate(401.2431640625,98.39990234375)"/>
<path d="M0 0 C4.75982924 2.62772498 7.04616381 6.26349144 8.75 11.375 C8.85720914 14.40170123 8.9072763 17.40571077 8.91113281 20.43286133 C8.91858017 21.82357597 8.91858017 21.82357597 8.92617798 23.24238586 C8.9407999 26.31394184 8.94760177 29.38544617 8.953125 32.45703125 C8.95887656 34.59071352 8.96463429 36.72439577 8.97039795 38.858078 C8.98090811 43.33450563 8.98675064 47.81091529 8.99023438 52.28735352 C8.99571822 58.02071007 9.01974397 63.75382904 9.04820633 69.48711109 C9.06683892 73.89577424 9.07203865 78.30438025 9.07357025 82.71307945 C9.07659604 84.82656846 9.08462208 86.94005648 9.09775543 89.05350685 C9.11482818 92.01217293 9.11293252 94.9702596 9.10644531 97.92895508 C9.12026749 99.23603424 9.12026749 99.23603424 9.1343689 100.56951904 C9.0951858 106.28022476 8.2732711 110.67195386 4.21484375 115.01953125 C-2.01368758 119.7825258 -6.4561468 120.10949925 -14.25 119.375 C-18.72870656 117.21562362 -21.43198188 114.44547061 -24.25 110.375 C-25.58343169 106.37470493 -25.41417114 102.52090825 -25.42700195 98.34887695 C-25.43357315 97.42494644 -25.44014435 96.50101593 -25.44691467 95.54908752 C-25.466647 92.48715128 -25.47831105 89.42526411 -25.48828125 86.36328125 C-25.49235678 85.31689169 -25.4964323 84.27050213 -25.50063133 83.19240379 C-25.52149323 77.65244112 -25.53579363 72.11250322 -25.54516602 66.57250977 C-25.55622192 60.85721439 -25.59061231 55.14230925 -25.63033772 49.42715168 C-25.65651657 45.02698556 -25.66485907 40.62691218 -25.66844749 36.22667503 C-25.67331127 34.12040768 -25.68491927 32.0141444 -25.70348549 29.90795326 C-25.72790022 26.95435552 -25.7269073 24.00176401 -25.7199707 21.0480957 C-25.73278076 20.18390015 -25.74559082 19.31970459 -25.75878906 18.42932129 C-25.70970486 12.6723743 -24.59763666 8.14092506 -21.25 3.375 C-14.70882367 -1.83124239 -7.74512181 -3.48892403 0 0 Z " fill="#64748B" transform="translate(264.25,229.625)"/>
<path d="M0 0 C5.7957881 3.19452887 9.65649093 7.71947278 11.75 14 C12.38243425 21.57884326 12.75914252 28.85750401 7.75 35 C2.41345414 40.07539574 -2.73272576 42.71634885 -10.125 43.3125 C-17.4102512 43.09004958 -23.16745704 40.1980553 -28.25 35 C-33.06171145 28.70891143 -33.1868972 21.64814037 -32.25 14 C-30.18072192 6.74590154 -25.49320023 2.80870782 -19 -0.8125 C-12.20184446 -2.96524926 -6.56605423 -2.92263466 0 0 Z " fill="#64748B" transform="translate(266.25,159)"/>
</svg>
