<?xml version="1.0" encoding="UTF-8"?>
<svg version="1.1" xmlns="http://www.w3.org/2000/svg" width="512" height="512">
<path d="M0 0 C16.59738171 14.8044692 29.41091433 32.4231435 37.3515625 53.26953125 C37.61710938 53.94556396 37.88265625 54.62159668 38.15625 55.31811523 C39.07380767 57.86128308 39.82067173 60.4122862 40.5390625 63.01953125 C40.71157532 63.6374353 40.88408813 64.25533936 41.06182861 64.89196777 C45.28275192 80.65496344 45.02448624 96.49479958 44.8137207 112.67010498 C44.77205615 116.21747025 44.7543773 119.76495818 44.734375 123.3125 C44.69207324 130.21513307 44.62423712 137.11729694 44.5390625 144.01953125 C49.56862644 139.72058485 54.35977047 135.30305576 58.9453125 130.53515625 C60.11267953 129.34055754 61.28066671 128.14656457 62.44921875 126.953125 C64.25215788 125.10689566 66.05088765 123.25723142 67.83935547 121.39697266 C69.59223152 119.57713817 71.3609248 117.77396043 73.1328125 115.97265625 C73.91912048 115.14293304 73.91912048 115.14293304 74.72131348 114.29644775 C79.15740302 109.82925032 83.83887073 107.31151195 90.26171875 106.8046875 C91.41994141 106.94197266 91.41994141 106.94197266 92.6015625 107.08203125 C93.37628906 107.15550781 94.15101563 107.22898437 94.94921875 107.3046875 C101.60177172 109.14091253 106.29056529 113.31986526 111.0234375 118.10546875 C111.60571106 118.68487213 112.18798462 119.26427551 112.78790283 119.86123657 C114.00828506 121.07959022 115.22493902 122.30168886 116.43798828 123.52734375 C118.28746507 125.39291991 120.15245276 127.2419022 122.01953125 129.08984375 C123.20929661 130.28159119 124.39813121 131.47426871 125.5859375 132.66796875 C126.1390863 133.21504486 126.69223511 133.76212097 127.262146 134.32577515 C132.10128789 139.25330363 134.9672295 143.8546204 134.9765625 150.95703125 C135.00556641 152.42462891 135.00556641 152.42462891 135.03515625 153.921875 C133.6869211 162.34038265 127.21045087 167.74645138 121.3984375 173.453125 C120.51625549 174.33106216 119.63407349 175.20899933 118.72515869 176.11354065 C116.39608475 178.42872864 114.06067384 180.73725848 111.72192383 183.04266357 C109.32995091 185.40376378 106.9466121 187.7735454 104.5625 190.14257812 C99.89588003 194.77621251 95.22079022 199.40116461 90.5390625 204.01953125 C94.98952635 209.36401283 99.71037028 214.28280295 104.67578125 219.1484375 C106.23791702 220.69306937 107.79975726 222.23800016 109.36132812 223.78320312 C111.80055023 226.19140878 114.24201836 228.59719592 116.6887207 230.99780273 C119.06620132 233.33290911 121.43409445 235.67739877 123.80078125 238.0234375 C124.89769539 239.09242027 124.89769539 239.09242027 126.01676941 240.18299866 C130.38746153 244.53152535 133.9638041 248.42287064 134.97265625 254.73046875 C134.97394531 255.60960937 134.97523438 256.48875 134.9765625 257.39453125 C134.99589844 258.26851563 135.01523437 259.1425 135.03515625 260.04296875 C133.82120214 267.32669338 129.59763707 272.56191481 124.453125 277.6015625 C123.87372162 278.18242111 123.29431824 278.76327972 122.69735718 279.36174011 C121.48014306 280.57730628 120.25802912 281.78798426 119.03125 282.99389648 C117.16358823 284.83249814 115.31541763 286.68916615 113.46875 288.54882812 C112.27715212 289.73419026 111.08447952 290.91847321 109.890625 292.1015625 C109.34354889 292.65157425 108.79647278 293.201586 108.2328186 293.76826477 C103.12453408 298.75364562 98.00854659 301.52125442 90.83203125 302.07421875 C79.55977645 301.80537451 71.66518439 291.29727863 64.3203125 283.8984375 C63.57696655 283.15367661 62.83362061 282.40891571 62.06774902 281.6415863 C59.72246949 279.2907638 57.38071414 276.93646694 55.0390625 274.58203125 C53.43773289 272.97567926 51.83617252 271.36955728 50.234375 269.76367188 C46.33326777 265.8516114 42.4350383 261.93670173 38.5390625 258.01953125 C35.24825052 259.45258207 33.13500513 261.20639995 30.64770508 263.77905273 C29.8962471 264.55002792 29.14478912 265.32100311 28.37055969 266.11534119 C27.56636093 266.94868484 26.76216217 267.7820285 25.93359375 268.640625 C24.21088722 270.39837545 22.4875602 272.15551794 20.76367188 273.91210938 C18.05588206 276.68172424 15.35296378 279.45558165 12.66088867 282.24047852 C10.05710253 284.92925117 7.4345223 287.59849656 4.80859375 290.265625 C4.01451614 291.09694443 3.22043854 291.92826385 2.40229797 292.78477478 C-3.01737374 298.25324897 -7.96266504 301.75313755 -15.83114624 302.1343689 C-26.73629227 301.86638504 -34.61200936 292.32311372 -41.74682617 285.06982422 C-43.2794628 283.51341248 -44.82518834 281.97094692 -46.37304688 280.4296875 C-59.50830798 267.22084727 -59.50830798 267.22084727 -59.7734375 258.33203125 C-59.82951172 257.11966797 -59.82951172 257.11966797 -59.88671875 255.8828125 C-58.59671221 247.20781442 -52.7650668 241.81262015 -46.7109375 236.01953125 C-45.91816406 235.24480469 -45.12539062 234.47007812 -44.30859375 233.671875 C-42.36822311 231.77826028 -40.4191227 229.89468838 -38.4609375 228.01953125 C-39.23600867 228.0171429 -40.01107985 228.01475454 -40.80963802 228.01229382 C-59.68973004 227.95309601 -78.56969186 227.87751534 -97.44964504 227.78381634 C-106.57994366 227.73889667 -115.7102036 227.69947319 -124.84057617 227.6730957 C-132.8008348 227.65008459 -140.76097066 227.61665184 -148.72113186 227.57082969 C-152.93396853 227.54693939 -157.14668391 227.52818318 -161.35958672 227.52191734 C-165.3298492 227.51584745 -169.29980153 227.49577932 -173.26994896 227.46525574 C-174.72228589 227.45650591 -176.1746634 227.45274656 -177.6270256 227.45452309 C-189.45262446 227.46441562 -198.59551985 226.28185926 -207.4609375 218.01953125 C-213.37522032 210.54885821 -213.75912219 203.64923658 -213.75146484 194.47241211 C-213.75818207 193.31533249 -213.76489929 192.15825287 -213.77182007 190.96611023 C-213.7908194 187.13882138 -213.79472681 183.3117081 -213.796875 179.484375 C-213.80167929 177.48526852 -213.80648753 175.486162 -213.81179583 173.48705679 C-213.82807012 167.19017021 -213.83296658 160.89334075 -213.83154297 154.59643555 C-213.83034935 148.15504438 -213.85129601 141.71399251 -213.8830303 135.2726869 C-213.90945205 129.7062384 -213.91989923 124.13989865 -213.91863215 118.57338816 C-213.91812896 115.26557953 -213.9253673 111.95813272 -213.94498825 108.65037346 C-214.0490507 89.27584793 -213.17994147 70.23188165 -205.7109375 52.08203125 C-205.36732178 51.21779541 -205.02370605 50.35355957 -204.66967773 49.46313477 C-191.70793733 17.74509772 -166.2969714 -7.34169456 -135.0859375 -21.125 C-90.12789494 -39.84131313 -36.8515848 -32.09287875 0 0 Z M-22.03070068 126.00785828 C-22.60064758 126.58276505 -23.17059448 127.15767181 -23.7578125 127.75 C-24.35144592 128.33743484 -24.94507935 128.92486969 -25.55670166 129.53010559 C-26.80892397 130.77522495 -28.05602498 132.02551292 -29.29833984 133.28051758 C-31.20221678 135.19824708 -33.12881306 137.09080347 -35.05859375 138.98242188 C-36.27228584 140.19516267 -37.48457409 141.40931039 -38.6953125 142.625 C-39.27335632 143.18978561 -39.85140015 143.75457123 -40.44696045 144.33647156 C-43.49010926 147.41944202 -43.49010926 147.41944202 -44.87480164 151.41746521 C-44.30780166 154.9823341 -42.83922518 156.20636977 -40.25415039 158.69873047 C-39.33642349 159.59671356 -38.41869659 160.49469666 -37.47315979 161.41989136 C-36.97793886 161.89289547 -36.48271793 162.36589958 -35.97249031 162.85323715 C-34.41828859 164.33884845 -32.88082591 165.84006145 -31.3467865 167.34646606 C-27.53353351 171.08494885 -23.69567805 174.79779235 -19.85345459 178.50646973 C-16.60736498 181.64050202 -13.37361394 184.78624953 -10.15618706 187.94971085 C-8.64484619 189.42601692 -7.11685978 190.88351139 -5.58766174 192.34127808 C-4.66678268 193.24556549 -3.74590363 194.14985291 -2.79711914 195.08154297 C-1.98215469 195.86810272 -1.16719025 196.65466248 -0.32752991 197.46505737 C2.05532518 200.72604839 2.47938516 203.00298903 2.5390625 207.01953125 C1.43711853 209.1242218 1.43711853 209.1242218 -0.30883789 210.87231445 C-0.96054962 211.54324127 -1.61226135 212.21416809 -2.28372192 212.90542603 C-3.00220306 213.60308075 -3.7206842 214.30073547 -4.4609375 215.01953125 C-5.18111053 215.74755951 -5.90128357 216.47558777 -6.64328003 217.22567749 C-9.03856469 219.63184268 -11.46379799 222.00467576 -13.89453125 224.375 C-15.69524852 226.14849267 -17.4953615 227.92259907 -19.29492188 229.69726562 C-22.10933317 232.46823779 -24.92729775 235.23516155 -27.75561523 237.99194336 C-30.5008253 240.67080394 -33.23005812 243.36509404 -35.95703125 246.0625 C-36.81002304 246.88654831 -37.66301483 247.71059662 -38.54185486 248.55961609 C-39.32009109 249.33424698 -40.09832733 250.10887787 -40.90014648 250.90698242 C-41.93436989 251.92002693 -41.93436989 251.92002693 -42.98948669 252.95353699 C-44.8371063 255.54769201 -44.93874337 256.89698023 -44.4609375 260.01953125 C-42.6188055 262.37060681 -40.84000699 264.36530767 -38.73046875 266.44921875 C-38.14303391 267.0438089 -37.55559906 267.63839905 -36.95036316 268.25100708 C-35.70646991 269.50267602 -34.45615089 270.74798721 -33.19995117 271.98730469 C-31.27826447 273.88975261 -29.38771907 275.8197162 -27.49804688 277.75390625 C-26.28562585 278.9666176 -25.07148852 280.17761599 -23.85546875 281.38671875 C-23.29068314 281.9667868 -22.72589752 282.54685486 -22.14399719 283.14450073 C-20.3558669 284.94781408 -20.3558669 284.94781408 -17.4609375 287.01953125 C-12.89035927 286.85542 -10.87833313 284.8941359 -7.79760742 281.68334961 C-6.90285202 280.76247055 -6.00809662 279.84159149 -5.08622742 278.89280701 C-4.37915429 278.15128797 -4.37915429 278.15128797 -3.65779686 277.39478874 C-2.17489564 275.84208724 -0.67803205 274.30419674 0.82365417 272.76966858 C5.08942124 268.40629259 9.3322713 264.0211449 13.55688477 259.61791992 C16.14555552 256.92185572 18.75359679 254.2458205 21.37436485 251.58096504 C22.36638368 250.56418358 23.35075702 249.53988223 24.3270359 248.50797844 C32.9003522 239.45065833 32.9003522 239.45065833 37.5390625 238.76611328 C43.78209876 239.68741237 48.09766518 245.70337187 52.20703125 250.046875 C53.21288167 251.07783332 54.22083773 252.10674107 55.23078918 253.13368225 C57.87828608 255.83424411 60.50256479 258.55617612 63.12078857 261.28509521 C67.31643705 265.65361544 71.53944987 269.99527001 75.77581215 274.32428169 C77.24860929 275.83787353 78.70695009 277.36440558 80.16435242 278.89280701 C81.50648552 280.2741256 81.50648552 280.2741256 82.87573242 281.68334961 C83.65768478 282.49831406 84.43963715 283.3132785 85.24528503 284.15293884 C87.77064767 286.20798681 89.31353802 286.79860723 92.5390625 287.01953125 C94.54654478 285.95037631 94.54654478 285.95037631 96.265625 284.15234375 C96.95172852 283.50297852 97.63783203 282.85361328 98.34472656 282.18457031 C99.06885742 281.47010742 99.79298828 280.75564453 100.5390625 280.01953125 C101.29670898 279.29733398 102.05435547 278.57513672 102.83496094 277.83105469 C105.21982432 275.54320941 107.56951674 273.22362695 109.9140625 270.89453125 C110.71972656 270.10949219 111.52539062 269.32445312 112.35546875 268.515625 C113.12503906 267.75121094 113.89460937 266.98679687 114.6875 266.19921875 C115.38020996 265.51585449 116.07291992 264.83249023 116.78662109 264.12841797 C118.67330683 261.85798172 119.59571968 259.8010276 120.5390625 257.01953125 C115.38796046 250.91299659 109.8684588 245.29782375 104.140625 239.734375 C102.34430948 237.97015684 100.54875865 236.20515979 98.75390625 234.43945312 C95.94968545 231.68477077 93.1413309 228.93498062 90.31982422 226.19799805 C87.57955491 223.53636834 84.85876577 220.85607481 82.140625 218.171875 C80.86887924 216.95128639 80.86887924 216.95128639 79.57144165 215.70603943 C76.24641014 212.39673607 73.86645878 209.81233744 72.06396484 205.44750977 C72.79594773 200.16602376 75.81205395 197.64603032 79.5390625 194.01953125 C80.2569696 193.28923706 80.97487671 192.55894287 81.71453857 191.80651855 C84.10030345 189.39099322 86.5157988 187.00837849 88.9375 184.62890625 C90.73335583 182.85054607 92.5289204 181.07189172 94.32421875 179.29296875 C97.13237058 176.5159144 99.9427891 173.74127316 102.75830078 170.97167969 C105.4913952 168.28076411 108.21508138 165.58061619 110.9375 162.87890625 C111.78533051 162.04969666 112.63316101 161.22048706 113.50668335 160.3661499 C114.28484406 159.59144348 115.06300476 158.81673706 115.86474609 158.01855469 C116.55200775 157.34097107 117.23926941 156.66338745 117.94735718 155.965271 C119.62437358 153.91524488 120.25528455 152.63838772 120.5390625 150.01953125 C119.46206168 148.12244096 119.46206168 148.12244096 117.69921875 146.390625 C117.04969238 145.69565918 116.40016602 145.00069336 115.73095703 144.28466797 C115.00763184 143.53717285 114.28430664 142.78967773 113.5390625 142.01953125 C112.79124512 141.22434082 112.04342773 140.42915039 111.27294922 139.60986328 C108.86801282 137.07272744 106.42718793 134.57500841 103.9765625 132.08203125 C103.15220703 131.22029297 102.32785156 130.35855469 101.47851562 129.47070312 C100.67220703 128.65279297 99.86589844 127.83488281 99.03515625 126.9921875 C98.31513428 126.25234619 97.5951123 125.51250488 96.85327148 124.75024414 C93.94774951 122.57730973 92.15905196 122.16759122 88.5390625 122.01953125 C85.93783219 123.65383777 85.93783219 123.65383777 83.65454102 126.22045898 C82.7366127 127.16150986 81.81868439 128.10256073 80.87294006 129.0721283 C80.15097789 129.83733953 80.15097789 129.83733953 79.41443062 130.61800957 C77.90362202 132.21832166 76.37184563 133.79557398 74.83274841 135.3686676 C71.01554486 139.2793987 67.23722594 143.22702378 63.45739746 147.17382812 C60.26167154 150.50781578 57.05189872 153.82701188 53.82212639 157.12803841 C52.31443043 158.68101871 50.82939664 160.25358585 49.34413147 161.82798767 C48.42305099 162.7721907 47.50197052 163.71639374 46.55297852 164.68920898 C45.75167007 165.52717514 44.95036163 166.3651413 44.12477112 167.22850037 C40.69684531 169.60290595 38.62787817 169.55942509 34.5390625 169.01953125 C32.43560791 167.81993103 32.43560791 167.81993103 30.68847656 166.10913086 C29.68210144 165.14509842 29.68210144 165.14509842 28.65539551 164.16159058 C27.95700562 163.454711 27.25861572 162.74783142 26.5390625 162.01953125 C25.80876831 161.30064728 25.07847412 160.58176331 24.3260498 159.84109497 C21.91194654 157.44320641 19.52863227 155.01746757 17.1484375 152.5859375 C15.37023126 150.78537305 13.59157236 148.98525555 11.8125 147.18554688 C9.03406702 144.36982777 6.25885376 141.55118196 3.49121094 138.72485352 C0.8025991 135.98202434 -1.8983169 133.25183463 -4.6015625 130.5234375 C-5.43077209 129.67044571 -6.25998169 128.81745392 -7.11431885 127.93861389 C-7.88902527 127.16037766 -8.66373169 126.38214142 -9.46191406 125.58032227 C-10.13949768 124.89084 -10.8170813 124.20135773 -11.51519775 123.49098206 C-15.97037675 120.121787 -18.61912741 122.69628685 -22.03070068 126.00785828 Z " fill="#64748B" transform="translate(295.4609375,188.98046875)"/>
<path d="M0 0 C12.43630269 13.37115005 19.62404074 29.31094512 18.98828125 47.796875 C17.51194258 64.24750589 11.13730533 79.66353458 -1.28515625 90.84375 C-14.5330175 101.76893428 -31.0765553 107.40616773 -48.28515625 105.84375 C-65.44464063 103.63411802 -80.39209474 95.65971153 -91.09765625 82.03125 C-100.54591759 68.7003698 -105.275232 52.87951751 -102.78125 36.54296875 C-100.45693745 24.39013456 -96.6054253 14.10530201 -88.28515625 4.84375 C-87.61613281 4.08191406 -86.94710937 3.32007812 -86.2578125 2.53515625 C-76.52587101 -7.90072314 -62.99237704 -14.91223348 -48.62109375 -16.125 C-30.63071079 -16.36567402 -13.68295168 -12.57894825 0 0 Z " fill="#64748B" transform="translate(253.28515625,37.15625)"/>
</svg>
