<svg width="32" height="33" viewBox="0 0 32 33" fill="none" xmlns="http://www.w3.org/2000/svg">
<circle cx="16" cy="16.5" r="16" fill="#334155"/>
<circle cx="16" cy="16.5" r="15.5" stroke="#F8FAFC" stroke-opacity="0.1"/>
<path d="M7.15153 19.6682C8.06459 24.5637 12.7734 27.7921 17.6689 26.8791C22.5644 25.966 25.7929 21.2572 24.8798 16.3617C23.9667 11.4662 19.258 8.23774 14.3624 9.1508C9.4669 10.0639 6.23847 14.7726 7.15153 19.6682Z" fill="#64748B"/>
<circle cx="2.25425" cy="2.25425" r="2.25425" transform="matrix(-0.983048 0.183347 0.183347 0.983048 8.96875 16.4326)" fill="#64748B"/>
<ellipse cx="2.25425" cy="2.25425" rx="2.25425" ry="2.25425" transform="matrix(-0.983048 0.183347 0.183347 0.983048 26.7344 16.4321)" fill="#64748B"/>
<path fill-rule="evenodd" clip-rule="evenodd" d="M6.97999 15.7476C8.3263 16.6743 10.0269 17.0597 11.731 16.677C13.4597 16.2888 14.8472 15.1878 15.6637 13.7443C16.9678 16.0425 19.6283 17.3271 22.2974 16.7278C23.2573 16.5122 24.112 16.0769 24.8221 15.4852C24.7955 15.3312 24.7649 15.177 24.7302 15.0227C23.6193 10.0755 18.7798 6.94944 13.9208 8.04052C10.1338 8.89091 7.45266 12.052 6.97999 15.7476Z" fill="#1E293B"/>
<path fill-rule="evenodd" clip-rule="evenodd" d="M22.4983 10.705L9.35545 10.5807C9.66706 8.03891 12.5183 6.0681 15.9699 6.10076C19.4215 6.13343 22.2349 8.15785 22.4983 10.705Z" fill="#475569"/>
<rect x="7.16406" y="10.561" width="17.525" height="2.19062" rx="0.730207" transform="rotate(0.542194 7.16406 10.561)" fill="#475569"/>
<path d="M13.7605 7.70468C13.772 6.49489 14.762 5.52344 15.9718 5.53489C17.1816 5.54634 18.153 6.53635 18.1416 7.74614L18.1139 10.6668L13.7329 10.6254L13.7605 7.70468Z" fill="#334155"/>
</svg>
