<?xml version="1.0" encoding="UTF-8"?>
<svg version="1.1" xmlns="http://www.w3.org/2000/svg" width="512" height="512">
<path d="M0 0 C21.76827322 16.80758727 34.08667385 41.06675511 37.9375 68.08203125 C38.86513784 75.48736036 39.26816563 82.72226265 39.1875 90.1875 C40.858125 89.630625 40.858125 89.630625 42.5625 89.0625 C47.70916164 87.79183221 52.23280082 88.3571558 57.1875 90.1875 C60.51816074 92.90640673 62.96229825 95.06100474 63.42578125 99.4375 C63.78419687 112.71774192 57.7473461 122.0468342 48.9375 131.63671875 C42.05540251 138.30375069 33.78536964 143.00552736 24.67602539 146.01806641 C21.74214532 147.39678568 20.85794147 148.57241775 19.171875 151.30859375 C18.38502319 152.57316406 18.38502319 152.57316406 17.58227539 153.86328125 C17.03949951 154.77464844 16.49672363 155.68601562 15.9375 156.625 C15.36829834 157.56859375 14.79909668 158.5121875 14.21264648 159.484375 C-1.64232993 186.19313865 -9.15660988 213.7571204 -9.2590332 244.86889648 C-9.37258817 250.81682724 -10.33214375 254.31374025 -13.8125 259.1875 C-19.21701566 263.37875705 -23.02644565 264.47492586 -29.8125 264.1875 C-41.01462403 262.26063892 -50.76819301 258.35736389 -60.8125 253.1875 C-62.24335938 252.47787109 -62.24335938 252.47787109 -63.703125 251.75390625 C-103.54316722 231.19318271 -134.93833323 191.33553692 -148.8125 149.1875 C-148.8125 148.5275 -148.8125 147.8675 -148.8125 147.1875 C-149.89724609 146.83171875 -149.89724609 146.83171875 -151.00390625 146.46875 C-162.90539941 141.03941793 -169.08080911 127.42520634 -173.83203125 116.046875 C-176.43715648 108.44945799 -177.58315699 99.09998507 -174 91.6875 C-171.89773362 87.88570026 -169.99682455 85.58227485 -165.8125 84.1875 C-161.22490555 84.03951308 -157.30250208 84.20188979 -152.8125 85.1875 C-152.70292969 84.62579102 -152.59335938 84.06408203 -152.48046875 83.48535156 C-145.99597655 50.99699128 -132.14174351 20.2966167 -104.5 0.4375 C-72.01883311 -21.02464219 -32.29446662 -22.34006426 0 0 Z M-105.8125 24.1875 C-130.08634769 49.56157874 -137.88765047 83.60086437 -137.17578125 117.7109375 C-136.86963858 126.56124377 -135.44209364 134.75168684 -132.8125 143.1875 C-132.53792969 144.27675781 -132.26335937 145.36601562 -131.98046875 146.48828125 C-130.12394274 150.77878116 -127.15754803 151.34252946 -123.0078125 153.02734375 C-94.10007698 163.52318415 -66.24293212 162.51433671 -38.375 149.59375 C-12.51414379 136.41465981 6.3023407 113.81241873 17.1875 87.1875 C17.64253906 86.16269531 18.09757813 85.13789063 18.56640625 84.08203125 C23.64121051 71.40339487 19.21309849 58.31611022 14.1875 46.1875 C9.55643953 35.5079283 3.48038133 27.29609507 -4.8125 19.1875 C-5.76189453 18.18976563 -5.76189453 18.18976563 -6.73046875 17.171875 C-34.95531644 -10.49221413 -79.99584066 -1.09305739 -105.8125 24.1875 Z " fill="#64748B" transform="translate(313.8125,131.8125)"/>
<path d="M0 0 C2.875 1.4375 2.875 1.4375 5 4 C6.27436165 12.74596147 2.71157254 17.78784297 -2 24.9375 C-2.72984994 26.0778109 -3.45751209 27.21952471 -4.18310547 28.36254883 C-5.69145469 30.73485405 -7.20899051 33.10087531 -8.73339844 35.46289062 C-12.28510969 40.98323442 -15.69781126 46.58936534 -19.125 52.1875 C-20.45292493 54.34517523 -21.7810486 56.50272816 -23.109375 58.66015625 C-27.41746573 65.6710048 -31.69597789 72.69977788 -35.95751953 79.73901367 C-40.89450811 87.87727064 -45.95321377 95.92514203 -51 104 C-35.16 104 -19.32 104 -3 104 C-3.19764846 92.33193635 -3.19764846 92.33193635 -3.45043945 80.66503906 C-3.46504713 79.19858621 -3.47778715 77.73211306 -3.48828125 76.265625 C-3.51386108 75.50878418 -3.53944092 74.75194336 -3.5657959 73.97216797 C-3.56901025 70.08665988 -3.36798007 68.39033418 -0.65698242 65.51464844 C2.61006144 63.6522263 4.29405135 63.38234189 8 64 C10.64805603 65.31262207 10.64805603 65.31262207 13 68 C13.76957952 71.82141044 13.67201398 75.61149986 13.63110352 79.49804688 C13.63825882 80.67238785 13.64541412 81.84672882 13.65278625 83.05665588 C13.6667962 86.27389339 13.6583661 89.49009002 13.63869596 92.70726967 C13.62230392 96.0753233 13.6311231 99.44332464 13.63621521 102.81140137 C13.6407356 108.46733842 13.62487018 114.12294469 13.59692383 119.77880859 C13.56487174 126.31596966 13.56488755 132.85253418 13.5821386 139.38973761 C13.59800757 145.68064186 13.59126789 151.97132759 13.57420158 158.26222229 C13.56733249 160.93841882 13.56836193 163.61444011 13.57574654 166.29063416 C13.58118454 170.02811889 13.56086653 173.76458444 13.53344727 177.50195312 C13.53997314 178.6127272 13.54649902 179.72350128 13.55322266 180.86793518 C13.53413597 182.39468117 13.53413597 182.39468117 13.5146637 183.95227051 C13.51185678 184.83568367 13.50904985 185.71909683 13.50615788 186.62928009 C12.83481621 189.77368053 11.45008964 190.98905741 9 193 C7 193.53125 7 193.53125 5 193.5 C4.01 193.51546875 4.01 193.51546875 3 193.53125 C0.03822232 192.7445278 -1.09823457 191.38328988 -3 189 C-3.48101807 185.93743896 -3.48101807 185.93743896 -3.45410156 182.30371094 C-3.45468567 181.63988403 -3.45526978 180.97605713 -3.45587158 180.29211426 C-3.45309265 178.10566262 -3.42201328 175.92058738 -3.390625 173.734375 C-3.38316184 172.21552271 -3.37746926 170.69666078 -3.37347412 169.17779541 C-3.35822341 165.18596675 -3.31894723 161.19472303 -3.2746582 157.203125 C-3.23369289 153.12768466 -3.21546046 149.05214952 -3.1953125 144.9765625 C-3.15245175 136.98410698 -3.08420804 128.99212632 -3 121 C-3.82827805 121.00888245 -4.65655609 121.01776489 -5.50993347 121.0269165 C-13.32259102 121.10712495 -21.13510992 121.16799606 -28.94808483 121.20724869 C-32.96467365 121.22810753 -36.98092173 121.25639332 -40.99731445 121.30175781 C-44.87471672 121.34527746 -48.75179164 121.36914992 -52.62941933 121.37950897 C-54.10740626 121.38688947 -55.58537563 121.40130214 -57.06322289 121.42292023 C-59.13653391 121.45203761 -61.20849923 121.45595283 -63.28198242 121.45410156 C-65.05069954 121.46742523 -65.05069954 121.46742523 -66.85514832 121.48101807 C-70.64468132 120.90139333 -72.29629897 119.66481799 -75 117 C-76.47017589 112.98762423 -75.54497503 109.18351372 -73.79980469 105.39355469 C-72.09189589 102.47635829 -70.26536454 99.67737444 -68.375 96.875 C-66.98807508 94.7418653 -65.60269525 92.60772532 -64.21875 90.47265625 C-63.51234375 89.39516113 -62.8059375 88.31766602 -62.078125 87.20751953 C-58.90307029 82.30692404 -55.88834959 77.31355059 -52.875 72.3125 C-47.97554585 64.23004384 -43.03178106 56.17684737 -38.04785156 48.14624023 C-34.97987747 43.2014809 -31.9212278 38.25115529 -28.875 33.29296875 C-28.52198822 32.71852524 -28.16897644 32.14408173 -27.80526733 31.55223083 C-26.08340449 28.74994733 -24.36254973 25.9470554 -22.64306641 23.14331055 C-21.38288554 21.09186453 -20.11946663 19.04240347 -18.85253906 16.99511719 C-17.59642476 14.96427766 -16.34862572 12.92827577 -15.10839844 10.88769531 C-14.50286133 9.90639648 -13.89732422 8.92509766 -13.2734375 7.9140625 C-12.73895996 7.03959473 -12.20448242 6.16512695 -11.65380859 5.26416016 C-8.36582572 0.76272036 -5.60785737 -0.80112248 0 0 Z " fill="#64748B" transform="translate(471,149)"/>
<path d="M0 0 C2.875 1.4375 2.875 1.4375 5 4 C6.27436165 12.74596147 2.71157254 17.78784297 -2 24.9375 C-2.72984994 26.0778109 -3.45751209 27.21952471 -4.18310547 28.36254883 C-5.69145469 30.73485405 -7.20899051 33.10087531 -8.73339844 35.46289062 C-12.28510969 40.98323442 -15.69781126 46.58936534 -19.125 52.1875 C-20.45292493 54.34517523 -21.7810486 56.50272816 -23.109375 58.66015625 C-27.41746573 65.6710048 -31.69597789 72.69977788 -35.95751953 79.73901367 C-40.89450811 87.87727064 -45.95321377 95.92514203 -51 104 C-35.16 104 -19.32 104 -3 104 C-3.19764846 92.33193635 -3.19764846 92.33193635 -3.45043945 80.66503906 C-3.46504713 79.19858621 -3.47778715 77.73211306 -3.48828125 76.265625 C-3.51386108 75.50878418 -3.53944092 74.75194336 -3.5657959 73.97216797 C-3.56901025 70.08665988 -3.36798007 68.39033418 -0.65698242 65.51464844 C2.61006144 63.6522263 4.29405135 63.38234189 8 64 C10.64805603 65.31262207 10.64805603 65.31262207 13 68 C13.76957952 71.82141044 13.67201398 75.61149986 13.63110352 79.49804688 C13.63825882 80.67238785 13.64541412 81.84672882 13.65278625 83.05665588 C13.6667962 86.27389339 13.6583661 89.49009002 13.63869596 92.70726967 C13.62230392 96.0753233 13.6311231 99.44332464 13.63621521 102.81140137 C13.6407356 108.46733842 13.62487018 114.12294469 13.59692383 119.77880859 C13.56487174 126.31596966 13.56488755 132.85253418 13.5821386 139.38973761 C13.59800757 145.68064186 13.59126789 151.97132759 13.57420158 158.26222229 C13.56733249 160.93841882 13.56836193 163.61444011 13.57574654 166.29063416 C13.58118454 170.02811889 13.56086653 173.76458444 13.53344727 177.50195312 C13.53997314 178.6127272 13.54649902 179.72350128 13.55322266 180.86793518 C13.53413597 182.39468117 13.53413597 182.39468117 13.5146637 183.95227051 C13.51185678 184.83568367 13.50904985 185.71909683 13.50615788 186.62928009 C12.83481621 189.77368053 11.45008964 190.98905741 9 193 C7 193.53125 7 193.53125 5 193.5 C4.01 193.51546875 4.01 193.51546875 3 193.53125 C0.03822232 192.7445278 -1.09823457 191.38328988 -3 189 C-3.48101807 185.93743896 -3.48101807 185.93743896 -3.45410156 182.30371094 C-3.45468567 181.63988403 -3.45526978 180.97605713 -3.45587158 180.29211426 C-3.45309265 178.10566262 -3.42201328 175.92058738 -3.390625 173.734375 C-3.38316184 172.21552271 -3.37746926 170.69666078 -3.37347412 169.17779541 C-3.35822341 165.18596675 -3.31894723 161.19472303 -3.2746582 157.203125 C-3.23369289 153.12768466 -3.21546046 149.05214952 -3.1953125 144.9765625 C-3.15245175 136.98410698 -3.08420804 128.99212632 -3 121 C-3.82827805 121.00888245 -4.65655609 121.01776489 -5.50993347 121.0269165 C-13.32259102 121.10712495 -21.13510992 121.16799606 -28.94808483 121.20724869 C-32.96467365 121.22810753 -36.98092173 121.25639332 -40.99731445 121.30175781 C-44.87471672 121.34527746 -48.75179164 121.36914992 -52.62941933 121.37950897 C-54.10740626 121.38688947 -55.58537563 121.40130214 -57.06322289 121.42292023 C-59.13653391 121.45203761 -61.20849923 121.45595283 -63.28198242 121.45410156 C-65.05069954 121.46742523 -65.05069954 121.46742523 -66.85514832 121.48101807 C-70.64468132 120.90139333 -72.29629897 119.66481799 -75 117 C-76.47017589 112.98762423 -75.54497503 109.18351372 -73.79980469 105.39355469 C-72.09189589 102.47635829 -70.26536454 99.67737444 -68.375 96.875 C-66.98807508 94.7418653 -65.60269525 92.60772532 -64.21875 90.47265625 C-63.51234375 89.39516113 -62.8059375 88.31766602 -62.078125 87.20751953 C-58.90307029 82.30692404 -55.88834959 77.31355059 -52.875 72.3125 C-47.97554585 64.23004384 -43.03178106 56.17684737 -38.04785156 48.14624023 C-34.97987747 43.2014809 -31.9212278 38.25115529 -28.875 33.29296875 C-28.52198822 32.71852524 -28.16897644 32.14408173 -27.80526733 31.55223083 C-26.08340449 28.74994733 -24.36254973 25.9470554 -22.64306641 23.14331055 C-21.38288554 21.09186453 -20.11946663 19.04240347 -18.85253906 16.99511719 C-17.59642476 14.96427766 -16.34862572 12.92827577 -15.10839844 10.88769531 C-14.50286133 9.90639648 -13.89732422 8.92509766 -13.2734375 7.9140625 C-12.73895996 7.03959473 -12.20448242 6.16512695 -11.65380859 5.26416016 C-8.36582572 0.76272036 -5.60785737 -0.80112248 0 0 Z " fill="#64748B" transform="translate(103,149)"/>
<path d="M0 0 C2.875 2.3125 2.875 2.3125 5 5 C5.556875 5.639375 6.11375 6.27875 6.6875 6.9375 C10.0038799 12.14895413 10.35817829 17.38717236 10.3125 23.375 C10.30512817 24.50772339 10.30512817 24.50772339 10.29760742 25.66333008 C10.11907153 34.11860672 7.9816578 39.8724481 2 46 C-1.040092 48.30627669 -4.200231 48.43092921 -7.98046875 48.3046875 C-12.23167022 47.66330701 -14.89785793 45.45363603 -17.4453125 42.09375 C-22.90637265 33.73052646 -22.89140202 24.75089496 -22 15 C-20.55167052 9.07286902 -17.72824905 4.90080547 -13 1 C-8.62073091 -1.64030777 -4.83742115 -1.349978 0 0 Z " fill="#64748B" transform="translate(262,214)"/>
<path d="M0 0 C3.43832042 3.20909905 3.90485359 6.7022653 4.23828125 11.25 C4.47955582 23.44071517 2.52720762 33.80833464 -6 43 C-8.66905653 45.60233012 -10.49641514 46.82164703 -14 48.0625 C-17 48 -17 48 -19.9375 45.9375 C-22 43 -22 43 -22.25 40.0625 C-20.95632392 36.89299361 -20.2724498 36.20856226 -17.6875 34.1875 C-13.35929038 30.67862224 -11.14641479 27.51269828 -10 22 C-9.79345539 17.85174336 -9.86234998 13.71131569 -10.05883789 9.5637207 C-10.08969482 8.761521 -10.12055176 7.95932129 -10.15234375 7.1328125 C-10.2140979 6.04830811 -10.2140979 6.04830811 -10.27709961 4.94189453 C-10 3 -10 3 -8.70922852 1.26904297 C-5.85242726 -0.85203301 -3.41565851 -0.42695731 0 0 Z " fill="#64748B" transform="translate(237,170)"/>
<path d="M0 0 C3.625 0.25 3.625 0.25 5.33984375 1.51879883 C7.8886562 4.95223901 6.71320685 10.16307228 6.5078125 14.29492188 C6.27042268 22.20132185 8.14799203 28.28972662 13.625 34.25 C14.553125 35.03375 15.48125 35.8175 16.4375 36.625 C18.625 39.25 18.625 39.25 18.6875 42.9375 C17.625 46.25 17.625 46.25 15.875 47.75 C12.34742393 48.53390579 9.64763424 47.89431868 6.59765625 45.97265625 C-2.07730529 38.433068 -6.67779315 29.98410031 -7.58984375 18.55859375 C-7.80730548 12.30439445 -6.94615108 6.97847131 -4.375 1.25 C-3.375 0.25 -3.375 0.25 0 0 Z " fill="#64748B" transform="translate(277.375,169.75)"/>
</svg>
