<svg width="17" height="17" viewBox="0 0 17 17" fill="none" xmlns="http://www.w3.org/2000/svg">
<path fill-rule="evenodd" clip-rule="evenodd" d="M10.1646 2.94821C9.27555 2.18328 7.96081 2.18328 7.07174 2.94821C6.68771 3.27863 6.20794 3.47735 5.70275 3.51527C4.53319 3.60304 3.60353 4.5327 3.51576 5.70226C3.47784 6.20745 3.27912 6.68722 2.9487 7.07125C2.18377 7.96032 2.18377 9.27506 2.9487 10.1641C3.27912 10.5482 3.47784 11.0279 3.51576 11.5331C3.60353 12.7027 4.53319 13.6323 5.70275 13.7201C6.20794 13.758 6.68771 13.9568 7.07174 14.2872C7.96081 15.0521 9.27555 15.0521 10.1646 14.2872C10.5486 13.9568 11.0284 13.758 11.5336 13.7201C12.7032 13.6323 13.6328 12.7027 13.7206 11.5331C13.7585 11.0279 13.9572 10.5482 14.2877 10.1641C15.0526 9.27506 15.0526 7.96032 14.2877 7.07125C13.9572 6.68722 13.7585 6.20745 13.7206 5.70226C13.6328 4.5327 12.7032 3.60304 11.5336 3.51527C11.0284 3.47735 10.5486 3.27863 10.1646 2.94821ZM11.731 7.3067C11.9734 7.03731 11.9516 6.62237 11.6822 6.37991C11.4128 6.13745 10.9979 6.15929 10.7554 6.42869L8.02801 9.45913L6.41332 8.11355C6.13488 7.88152 5.72108 7.91914 5.48905 8.19757C5.25702 8.47601 5.29464 8.88981 5.57307 9.12184L7.54366 10.764C7.88688 11.05 8.3948 11.0136 8.69368 10.6815L11.731 7.3067Z" fill="#10B981"/>
</svg>
