<svg width="12" height="12" viewBox="0 0 12 12" fill="none" xmlns="http://www.w3.org/2000/svg">
<path fill-rule="evenodd" clip-rule="evenodd" d="M0 4.93268C0 3.43921 0 2.69247 0.290649 2.12204C0.546312 1.62028 0.95426 1.21233 1.45603 0.956665C2.02646 0.666016 2.77319 0.666016 4.26667 0.666016H7.73333C9.22681 0.666016 9.97354 0.666016 10.544 0.956665C11.0457 1.21233 11.4537 1.62028 11.7094 2.12204C12 2.69247 12 3.43921 12 4.93268V5.73268C12 7.22616 12 7.97289 11.7094 8.54332C11.4537 9.04509 11.0457 9.45304 10.544 9.7087C9.97354 9.99935 9.22681 9.99935 7.73333 9.99935L2.94281 9.99935C2.766 9.99935 2.59643 10.0696 2.4714 10.1946L1.13807 11.5279C0.718096 11.9479 0 11.6505 0 11.0565V9.99935V6.66602V4.93268ZM4 3.33301C3.63181 3.33301 3.33333 3.63148 3.33333 3.99967C3.33333 4.36786 3.63181 4.66634 4 4.66634H8C8.36819 4.66634 8.66667 4.36786 8.66667 3.99967C8.66667 3.63148 8.36819 3.33301 8 3.33301H4ZM4 5.99967C3.63181 5.99967 3.33333 6.29815 3.33333 6.66634C3.33333 7.03453 3.63181 7.33301 4 7.33301H6C6.36819 7.33301 6.66667 7.03453 6.66667 6.66634C6.66667 6.29815 6.36819 5.99967 6 5.99967H4Z" fill="#64748B"/>
</svg>
